<?xml version="1.0" standalone="no"?>
<!DOCTYPE svg PUBLIC "-//W3C//DTD SVG 1.1//EN" "http://www.w3.org/Graphics/SVG/1.1/DTD/svg11.dtd" >
<svg>
<metadata>
Created by FontForge 20120731 at Mon Feb 29 07:53:10 2016
 By Apache
(c)2008-09 Paul Barnes and Christian Schwartz, under exclusive license to Schwartzco Inc./Commercial Type. All rights reserved.
</metadata>
<defs>
<font id="GuardianSans-Regular" horiz-adv-x="494" >
  <font-face 
    font-family="Guardian Sans Regular"
    font-weight="400"
    font-stretch="normal"
    units-per-em="1000"
    panose-1="2 11 5 3 5 5 3 6 8 3"
    ascent="790"
    descent="-210"
    x-height="513"
    cap-height="693"
    bbox="-175 -217 1194 1061"
    underline-thickness="102"
    underline-position="51"
    stemh="75"
    stemv="88"
    unicode-range="U+0020-FB04"
  />
<missing-glyph horiz-adv-x="497" 
 />
    <glyph glyph-name="f_b" unicode="fb" horiz-adv-x="853" 
d="M561 -13c-59 0 -145 11 -189 28v653c-21 4 -44 7 -76 7c-75 0 -116 -32 -116 -115v-47h117v-73h-117v-440h-88v440h-75v73h75v54c0 128 88 181 199 181c70 0 120 -7 169 -24v-242h5c39 24 86 41 155 41c96 0 199 -59 199 -250v-15c0 -171 -89 -271 -258 -271zM567 61
c85 0 161 40 161 184v22c0 136 -47 181 -150 181c-48 0 -94 -19 -118 -29v-341c22 -8 56 -17 107 -17z" />
    <glyph glyph-name="f_f" unicode="ff" horiz-adv-x="594" 
d="M92 0v440h-75v73h75v67c0 109 70 160 155 160c42 0 64 -8 81 -16v-63c-14 3 -31 6 -65 6c-50 0 -83 -26 -83 -94v-60h192v73c0 113 68 162 161 162c42 0 70 -9 88 -18v-63c-14 3 -37 8 -72 8c-57 0 -89 -28 -89 -96v-66h117v-73h-117v-440h-88v440h-192v-440h-88z" />
    <glyph glyph-name="f_f_b" unicode="ffb" horiz-adv-x="1133" 
d="M841 -13c-59 0 -145 11 -189 28v653c-21 4 -44 7 -76 7c-75 0 -116 -32 -116 -115v-47h117v-73h-117v-440h-88v440h-192v-440h-88v440h-75v73h75v67c0 109 70 160 155 160c42 0 64 -8 81 -16v-63c-14 3 -31 6 -65 6c-50 0 -83 -26 -83 -94v-60h192v54
c0 128 88 181 199 181c70 0 120 -7 169 -24v-242h5c39 24 86 41 155 41c96 0 199 -59 199 -250v-15c0 -171 -89 -271 -258 -271zM847 61c85 0 161 40 161 184v22c0 136 -47 181 -150 181c-48 0 -94 -19 -118 -29v-341c22 -8 56 -17 107 -17z" />
    <glyph glyph-name="f_f_h" unicode="ffh" horiz-adv-x="1123" 
d="M652 0v668c-21 4 -44 7 -76 7c-75 0 -116 -32 -116 -115v-47h117v-73h-117v-440h-88v440h-192v-440h-88v440h-75v73h75v67c0 109 70 160 155 160c42 0 64 -8 81 -16v-63c-14 3 -31 6 -65 6c-50 0 -83 -26 -83 -94v-60h192v54c0 128 88 181 199 181c70 0 120 -7 169 -24
v-253h5c42 29 106 52 169 52c101 0 149 -42 149 -141v-382h-88v363c0 59 -19 84 -100 84c-45 0 -98 -17 -135 -34v-413h-88z" />
    <glyph glyph-name="f_f_i" unicode="ffi" horiz-adv-x="806" 
d="M92 0v440h-75v73h75v67c0 109 70 160 155 160c42 0 64 -8 81 -16v-63c-14 3 -31 6 -65 6c-50 0 -83 -26 -83 -94v-60h192v75c0 109 70 160 155 160c39 0 58 -7 75 -15v-63c-14 3 -28 5 -59 5c-50 0 -83 -26 -83 -94v-68h280v-513h-88v440h-192v-440h-88v440h-192v-440
h-88zM651 615v91h90v-91h-90z" />
    <glyph glyph-name="f_f_j" unicode="ffj" horiz-adv-x="806" 
d="M598 -199c-36 0 -58 6 -78 17v61c18 -3 38 -6 55 -6c48 0 77 23 77 77v490h-192v-440h-88v440h-192v-440h-88v440h-75v73h75v67c0 109 70 160 155 160c42 0 64 -8 81 -16v-63c-14 3 -31 6 -65 6c-50 0 -83 -26 -83 -94v-60h192v75c0 109 70 160 155 160
c39 0 58 -7 75 -15v-63c-14 3 -28 5 -59 5c-50 0 -83 -26 -83 -94v-68h280v-568c0 -83 -42 -144 -142 -144zM651 615v91h90v-91h-90z" />
    <glyph glyph-name="f_f_k" unicode="ffk" horiz-adv-x="1067" 
d="M92 0v440h-75v73h75v67c0 109 70 160 155 160c42 0 64 -8 81 -16v-63c-14 3 -31 6 -65 6c-50 0 -83 -26 -83 -94v-60h192v54c0 128 88 181 199 181c70 0 120 -7 169 -24v-724h-88v668c-21 4 -44 7 -76 7c-75 0 -116 -32 -116 -115v-47h117v-73h-117v-440h-88v440h-192
v-440h-88zM956 0l-192 265l182 248h95l-181 -242l197 -271h-101z" />
    <glyph glyph-name="f_f_l" unicode="ffl" horiz-adv-x="806" 
d="M92 0v440h-75v73h75v67c0 109 70 160 155 160c42 0 64 -8 81 -16v-63c-14 3 -31 6 -65 6c-50 0 -83 -26 -83 -94v-60h192v54c0 128 88 181 199 181c70 0 120 -7 169 -24v-724h-88v668c-21 4 -44 7 -76 7c-75 0 -116 -32 -116 -115v-47h117v-73h-117v-440h-88v440h-192
v-440h-88z" />
    <glyph glyph-name="f_h" unicode="fh" horiz-adv-x="843" 
d="M372 0v668c-21 4 -44 7 -76 7c-75 0 -116 -32 -116 -115v-47h117v-73h-117v-440h-88v440h-75v73h75v54c0 128 88 181 199 181c70 0 120 -7 169 -24v-253h5c42 29 106 52 169 52c101 0 149 -42 149 -141v-382h-88v363c0 59 -19 84 -100 84c-45 0 -98 -17 -135 -34v-413
h-88z" />
    <glyph glyph-name="f_i" unicode="fi" horiz-adv-x="526" 
d="M92 0v440h-75v73h75v75c0 109 70 160 155 160c39 0 58 -7 75 -15v-63c-14 3 -28 5 -59 5c-50 0 -83 -26 -83 -94v-68h280v-513h-88v440h-192v-440h-88zM371 615v91h90v-91h-90z" />
    <glyph glyph-name="f_j" unicode="fj" horiz-adv-x="526" 
d="M318 -199c-36 0 -58 6 -78 17v61c18 -3 38 -6 55 -6c48 0 77 23 77 77v490h-192v-440h-88v440h-75v73h75v75c0 109 70 160 155 160c39 0 58 -7 75 -15v-63c-14 3 -28 5 -59 5c-50 0 -83 -26 -83 -94v-68h280v-568c0 -83 -42 -144 -142 -144zM371 615v91h90v-91h-90z" />
    <glyph glyph-name="f_k" unicode="fk" horiz-adv-x="787" 
d="M676 0l-192 265l182 248h95l-181 -242l197 -271h-101zM460 0h-88v668c-21 4 -44 7 -76 7c-75 0 -116 -32 -116 -115v-47h117v-73h-117v-440h-88v440h-75v73h75v54c0 128 88 181 199 181c70 0 120 -7 169 -24v-724z" />
    <glyph glyph-name="f_l" unicode="fl" horiz-adv-x="526" 
d="M460 0h-88v668c-21 4 -44 7 -76 7c-75 0 -116 -32 -116 -115v-47h117v-73h-117v-440h-88v440h-75v73h75v54c0 128 88 181 199 181c70 0 120 -7 169 -24v-724z" />
    <glyph glyph-name=".notdef" horiz-adv-x="497" 
 />
    <glyph glyph-name="Eth" unicode="&#xd0;" horiz-adv-x="651" 
d="M7 309v77h71v307h209c210 0 326 -107 326 -327v-20c0 -216 -100 -346 -324 -346h-211v309h-71zM169 78h122c155 0 224 76 224 254v34c0 188 -86 249 -236 249h-110v-229h196v-77h-196v-231z" />
    <glyph glyph-name="eth" unicode="&#xf0;" horiz-adv-x="532" 
d="M114 606l113 47c-32 28 -69 56 -110 86h116c23 -14 49 -31 75 -53l95 40l21 -52l-70 -29c76 -78 144 -192 144 -350v-29c0 -183 -94 -276 -235 -276c-148 0 -232 95 -232 256v17c0 161 92 260 232 260c35 0 63 -9 87 -22h7c-22 39 -50 75 -85 110l-137 -57zM407 287
c0 48 -6 91 -17 130c-27 18 -66 33 -119 33c-97 0 -149 -64 -149 -178v-28c0 -139 63 -182 143 -182c89 0 142 63 142 200v25z" />
    <glyph glyph-name="Lslash" unicode="&#x141;" horiz-adv-x="502" 
d="M1 214v78l77 33v368h91v-329l205 88v-78l-205 -88v-209h306v-77h-397v247z" />
    <glyph glyph-name="lslash" unicode="&#x142;" horiz-adv-x="246" 
d="M8 294v80l71 40v325h88v-275l80 46v-80l-80 -46v-384h-88v334z" />
    <glyph glyph-name="Scaron" unicode="&#x160;" horiz-adv-x="497" 
d="M227 -13c-87 0 -152 20 -199 46v77c54 -27 122 -45 194 -45c101 0 146 47 146 119c0 66 -29 94 -110 121l-72 24c-93 31 -149 82 -149 189c0 109 74 187 219 187c84 0 131 -19 170 -38v-77c-42 19 -97 37 -173 37c-79 0 -125 -37 -125 -101c0 -63 22 -91 95 -115l72 -24
c102 -34 166 -79 166 -196c0 -122 -71 -204 -234 -204zM383 864l-99 -124h-72l-99 124h69l67 -60l65 60h69z" />
    <glyph glyph-name="scaron" unicode="&#x161;" horiz-adv-x="409" 
d="M195 -9c-66 0 -123 12 -166 36v70c44 -17 81 -32 154 -32c76 0 109 26 109 71c0 42 -21 63 -84 80l-49 13c-74 20 -128 54 -128 143c0 90 57 151 180 151c69 0 111 -15 140 -30v-71c-26 12 -79 27 -136 27c-66 0 -100 -23 -100 -68c0 -42 22 -59 74 -73l49 -13
c100 -27 141 -60 141 -151c0 -101 -72 -153 -184 -153zM168 587l-102 144h70l71 -78l69 78h70l-102 -144h-76z" />
    <glyph glyph-name="Yacute" unicode="&#xdd;" horiz-adv-x="554" 
d="M232 0v268l-226 425h97l178 -339h3l175 339h89l-225 -425v-268h-91zM237 740l73 125h99l-94 -125h-78z" />
    <glyph glyph-name="yacute" unicode="&#xfd;" horiz-adv-x="479" 
d="M96 -199c-24 0 -51 7 -66 15v62c13 -2 31 -4 50 -4c47 0 80 22 102 77l23 59l-197 503h95l145 -387h3l133 387h87l-208 -574c-35 -98 -80 -138 -167 -138zM203 587l86 145h99l-107 -145h-78z" />
    <glyph glyph-name="Thorn" unicode="&#xde;" horiz-adv-x="554" 
d="M78 0v693h91v-121h130c153 0 231 -72 231 -199c0 -136 -91 -208 -222 -208h-139v-165h-91zM169 241h119c104 0 147 39 147 125c0 94 -41 129 -145 129h-121v-254z" />
    <glyph glyph-name="thorn" unicode="&#xfe;" horiz-adv-x="544" 
d="M63 -195v934h88v-263h5c30 25 81 47 144 47c111 0 210 -63 210 -252v-14c0 -188 -90 -267 -231 -267c-58 0 -101 17 -128 33v-218h-88zM271 62c93 0 148 49 148 183v22c0 139 -51 180 -143 180c-57 0 -103 -18 -125 -34v-316c22 -18 68 -35 120 -35z" />
    <glyph glyph-name="Zcaron" unicode="&#x17d;" horiz-adv-x="535" 
d="M27 0v69l373 544v3h-346v77h456v-68l-374 -545v-3h361v-77h-470zM420 864l-99 -124h-72l-99 124h69l67 -60l65 60h69z" />
    <glyph glyph-name="zcaron" unicode="&#x17e;" horiz-adv-x="447" 
d="M32 0v65l274 373v3h-259v72h366v-63l-274 -375v-3h273v-72h-380zM197 587l-102 144h70l71 -78l69 78h70l-102 -144h-76z" />
    <glyph glyph-name="onehalf" unicode="&#xbd;" horiz-adv-x="813" 
d="M105 277v342l-83 -13v46l118 44h38v-419h-73zM56 -40l511 753h74l-511 -753h-74zM505 0v50l93 93c57 56 91 97 91 150c0 50 -27 71 -78 71c-39 0 -74 -10 -99 -22v55c30 15 65 26 115 26c89 0 140 -47 140 -123c0 -71 -41 -117 -113 -184l-62 -57v-1h184v-58h-271z" />
    <glyph glyph-name="onequarter" unicode="&#xbc;" horiz-adv-x="771" 
d="M105 277v342l-83 -13v46l118 44h38v-419h-73zM69 -40l511 753h74l-511 -753h-74zM610 0v109h-192v51l200 256h64v-252h75v-55h-75v-109h-72zM490 164h121v152h-3l-118 -149v-3z" />
    <glyph glyph-name="threequarters" unicode="&#xbe;" horiz-adv-x="801" 
d="M147 270c-54 0 -91 12 -116 26v54c28 -11 64 -21 97 -21c62 0 100 21 100 69s-36 67 -91 67h-40v55h34c51 0 85 20 85 63c0 45 -32 58 -80 58c-37 0 -63 -6 -89 -15v53c30 14 69 21 110 21c79 0 133 -38 133 -104c0 -50 -28 -82 -77 -97v-2c56 -11 92 -42 92 -104
c0 -78 -62 -123 -158 -123zM123 -43l511 753h74l-511 -753h-74zM640 0v109h-192v51l200 256h64v-252h75v-55h-75v-109h-72zM520 164h121v152h-3l-118 -149v-3z" />
    <glyph glyph-name="brokenbar" unicode="&#xa6;" horiz-adv-x="295" 
d="M107 -120v395h81v-395h-81zM107 352v381h81v-381h-81z" />
    <glyph glyph-name="minus" unicode="&#x2212;" horiz-adv-x="517" 
d="M49 295v77h419v-77h-419z" />
    <glyph glyph-name="multiply" unicode="&#xd7;" horiz-adv-x="549" 
d="M126 124l-53 53l146 146l-146 146l53 53l146 -146l146 146l53 -53l-146 -146l146 -146l-53 -53l-146 146z" />
    <glyph glyph-name="space" unicode=" " horiz-adv-x="192" 
 />
    <glyph glyph-name="exclam" unicode="!" horiz-adv-x="279" 
d="M100 208l-11 485h100l-11 -485h-78zM90 0v101h100v-101h-100z" />
    <glyph glyph-name="quotedbl" unicode="&#x22;" horiz-adv-x="361" 
d="M221 508l-10 185h97l-10 -185h-77zM63 508l-10 185h97l-10 -185h-77z" />
    <glyph glyph-name="numbersign" unicode="#" horiz-adv-x="525" 
d="M61 414v77h101l32 202h71l-32 -202h109l32 202h71l-32 -202h77v-77h-90l-20 -124h84v-77h-96l-34 -213h-71l34 213h-109l-34 -213h-71l34 213h-82v77h94l20 124h-88zM220 414l-20 -124h109l20 124h-109z" />
    <glyph glyph-name="dollar" unicode="$" horiz-adv-x="513" 
d="M178 -118l11 108c-64 6 -113 24 -151 45v72c45 -23 100 -39 158 -44l26 259l-27 9c-96 32 -152 80 -152 187c0 108 73 186 218 187l6 60h66l-7 -64c46 -7 78 -21 106 -34v-74c-30 13 -67 26 -113 33l-24 -238l9 -3c105 -35 167 -79 167 -197c0 -117 -66 -195 -217 -201
l-10 -105h-66zM380 181c0 62 -23 92 -94 119l-24 -237c80 9 118 54 118 118zM132 526c0 -63 18 -90 99 -117l22 221c-76 -2 -121 -42 -121 -104z" />
    <glyph glyph-name="percent" unicode="%" horiz-adv-x="857" 
d="M202 322c-100 0 -162 69 -162 180v17c0 108 62 186 162 186s161 -70 161 -179v-17c0 -109 -61 -187 -161 -187zM656 -9c-100 0 -162 69 -162 180v17c0 108 62 186 162 186s161 -70 161 -179v-17c0 -109 -61 -187 -161 -187zM146 -40l480 753h76l-480 -753h-76zM656 49
c54 0 82 37 82 121v25c0 82 -30 121 -82 121s-83 -38 -83 -120v-25c0 -85 29 -122 83 -122zM202 380c54 0 82 37 82 121v25c0 82 -30 121 -82 121s-83 -38 -83 -120v-25c0 -85 29 -122 83 -122z" />
    <glyph glyph-name="ampersand" unicode="&#x26;" horiz-adv-x="644" 
d="M281 -12c-152 0 -244 68 -244 199c0 103 64 161 151 203c-43 52 -64 98 -64 151c0 115 91 164 180 164c94 0 169 -56 169 -151c0 -97 -73 -144 -154 -183l153 -185c20 42 32 93 36 148h83c-6 -78 -30 -151 -68 -209l104 -125h-110l-50 59c-49 -44 -112 -71 -186 -71z
M280 61c58 0 105 19 141 53l-189 224c-59 -31 -101 -70 -101 -141c0 -82 49 -136 149 -136zM217 546c0 -39 17 -73 46 -108l13 -16c52 27 107 61 107 130c0 51 -33 83 -80 83c-49 0 -86 -29 -86 -89z" />
    <glyph glyph-name="quotesingle" unicode="'" horiz-adv-x="203" 
d="M63 508l-10 185h97l-10 -185h-77z" />
    <glyph glyph-name="parenleft" unicode="(" horiz-adv-x="328" 
d="M238 -120c-98 96 -183 240 -183 421v17c0 182 85 325 183 421h78c-93 -102 -169 -251 -169 -412v-27c0 -156 76 -317 169 -420h-78z" />
    <glyph glyph-name="parenright" unicode=")" horiz-adv-x="328" 
d="M12 -120c93 102 169 251 169 412v27c0 156 -76 317 -169 420h78c98 -96 183 -240 183 -421v-17c0 -182 -85 -325 -183 -421h-78z" />
    <glyph glyph-name="asterisk" unicode="*" horiz-adv-x="378" 
d="M155 385l4 107l-87 -57l-33 58l92 46l-92 46l33 58l87 -57l-4 107h67l-3 -107l87 57l33 -58l-92 -46l92 -46l-33 -58l-87 57l3 -107h-67z" />
    <glyph glyph-name="plus" unicode="+" horiz-adv-x="517" 
d="M218 119v176h-169v77h169v176h81v-176h169v-77h-169v-176h-81z" />
    <glyph glyph-name="comma" unicode="," horiz-adv-x="252" 
d="M65 -92l16 193h103l-43 -193h-76z" />
    <glyph glyph-name="hyphen" unicode="-" horiz-adv-x="320" 
d="M63 238v76h194v-76h-194z" />
    <glyph glyph-name="period" unicode="." horiz-adv-x="252" 
d="M76 0v101h100v-101h-100z" />
    <glyph glyph-name="slash" unicode="/" horiz-adv-x="346" 
d="M5 -120l240 859h79l-240 -859h-79z" />
    <glyph glyph-name="zero" unicode="0" horiz-adv-x="652" 
d="M328 -13c-156 0 -278 100 -278 337v36c0 249 129 345 279 345c149 0 273 -94 273 -339v-36c0 -246 -118 -343 -274 -343zM328 63c125 0 179 78 179 254v50c0 169 -53 262 -178 262s-181 -87 -181 -256v-50c0 -169 55 -260 180 -260z" />
    <glyph glyph-name="one" unicode="1" horiz-adv-x="334" 
d="M154 0v593l-127 -12v52l186 66h32v-699h-91z" />
    <glyph glyph-name="two" unicode="2" horiz-adv-x="516" 
d="M34 0v66l164 165c99 99 159 172 159 268c0 89 -53 128 -148 128c-64 0 -118 -17 -161 -38v73c50 27 107 43 185 43c141 0 221 -74 221 -198c0 -119 -70 -201 -194 -320l-112 -107v-3h323v-77h-437z" />
    <glyph glyph-name="three" unicode="3" horiz-adv-x="508" 
d="M209 -11c-84 0 -140 20 -181 44v72c48 -21 106 -38 161 -38c110 0 175 39 175 130c0 89 -59 125 -159 125h-64v77h52c90 0 146 38 146 119c0 84 -52 109 -135 109c-65 0 -103 -12 -147 -28v72c47 23 108 34 170 34c126 0 207 -64 207 -173c0 -83 -46 -135 -129 -161v-3
c93 -18 155 -72 155 -175c0 -130 -97 -204 -251 -204z" />
    <glyph glyph-name="four" unicode="4" horiz-adv-x="572" 
d="M337 0v188h-324v68l337 437h76v-430h133v-75h-133v-188h-89zM108 263h229v294h-4l-225 -291v-3z" />
    <glyph glyph-name="five" unicode="5" horiz-adv-x="509" 
d="M213 -11c-84 0 -143 18 -185 44v72c47 -23 102 -38 165 -38c105 0 171 44 171 147c0 104 -62 140 -171 140c-54 0 -103 -8 -136 -18l26 357h357v-77h-283l-15 -193c22 5 45 8 77 8c150 0 242 -67 242 -216c0 -137 -93 -226 -248 -226z" />
    <glyph glyph-name="six" unicode="6" horiz-adv-x="590" 
d="M307 -13c-164 0 -257 127 -257 310v44c0 272 155 364 316 364c61 0 110 -9 139 -25v-71c-26 8 -73 18 -123 18c-115 0 -224 -35 -234 -250c39 29 105 56 183 56c125 0 214 -72 214 -209c0 -130 -85 -237 -238 -237zM306 63c93 0 143 59 143 152c0 113 -60 141 -144 141
c-67 0 -119 -21 -158 -46v-15c0 -132 45 -232 159 -232z" />
    <glyph glyph-name="seven" unicode="7" horiz-adv-x="486" 
d="M89 0l285 612v4h-350v77h440v-72l-274 -621h-101z" />
    <glyph glyph-name="eight" unicode="8" horiz-adv-x="588" 
d="M294 -13c-157 0 -251 71 -251 186c0 86 71 151 146 185c-69 35 -126 83 -126 169c0 103 88 178 227 178c136 0 227 -64 227 -172c0 -80 -58 -137 -129 -175c81 -34 157 -76 157 -176c0 -112 -91 -195 -251 -195zM292 63c94 0 156 41 156 109c0 79 -66 105 -194 152
c-63 -31 -118 -78 -118 -147c0 -75 62 -114 156 -114zM318 390c65 36 104 73 104 138c0 58 -42 101 -131 101c-80 0 -131 -35 -131 -98c0 -67 59 -99 158 -141z" />
    <glyph glyph-name="nine" unicode="9" horiz-adv-x="590" 
d="M224 -13c-61 0 -115 10 -144 28v72c26 -10 78 -22 128 -22c138 0 228 45 234 250c-39 -29 -105 -56 -183 -56c-125 0 -214 72 -214 209c0 130 81 237 239 237c148 0 256 -104 256 -310v-44c0 -272 -137 -364 -316 -364zM285 336c67 0 119 21 158 46v15
c0 145 -56 232 -158 232c-98 0 -144 -59 -144 -152c0 -113 60 -141 144 -141z" />
    <glyph glyph-name="colon" unicode=":" horiz-adv-x="262" 
d="M81 300v101h100v-101h-100zM81 0v101h100v-101h-100z" />
    <glyph glyph-name="semicolon" unicode=";" horiz-adv-x="262" 
d="M64 -92l16 193h103l-43 -193h-76zM81 300v101h100v-101h-100z" />
    <glyph glyph-name="less" unicode="&#x3c;" horiz-adv-x="481" 
d="M421 104l-376 180v71l376 180v-86l-282 -130l282 -127v-88z" />
    <glyph glyph-name="equal" unicode="=" horiz-adv-x="528" 
d="M56 357v74h416v-74h-416zM56 180v74h416v-74h-416z" />
    <glyph glyph-name="greater" unicode="&#x3e;" horiz-adv-x="481" 
d="M60 104v86l282 130l-282 127v88l376 -180v-71z" />
    <glyph glyph-name="question" unicode="?" horiz-adv-x="414" 
d="M120 208v49c0 71 37 99 104 155c44 36 62 62 62 121c0 72 -46 96 -123 96c-61 0 -92 -10 -137 -25v71c47 20 94 30 158 30c108 0 198 -48 198 -170c0 -85 -29 -114 -104 -176c-47 -39 -75 -59 -75 -108v-43h-83zM113 0v101h100v-101h-100z" />
    <glyph glyph-name="at" unicode="@" horiz-adv-x="893" 
d="M448 -155c-254 0 -400 138 -400 373c0 234 152 462 441 462c220 0 359 -149 359 -350c0 -187 -84 -298 -225 -298c-65 0 -100 23 -110 62h-5c-27 -32 -69 -62 -123 -62c-89 0 -139 64 -139 165c0 172 81 283 213 283c46 0 85 -18 106 -39h5l6 30h82l-61 -323
c-6 -32 4 -53 40 -53c86 0 137 82 137 229c0 172 -93 291 -287 291c-240 0 -365 -176 -365 -396c0 -193 107 -311 327 -311c95 0 178 24 224 39v-57c-59 -25 -136 -45 -225 -45zM409 100c45 0 77 23 102 47l41 229c-16 19 -50 35 -93 35c-94 0 -124 -88 -124 -213
c0 -65 26 -98 74 -98z" />
    <glyph glyph-name="A" unicode="A" horiz-adv-x="605" 
d="M7 0l252 693h89l250 -693h-95l-70 195h-271l-69 -195h-86zM295 572l-106 -300h216l-107 300h-3z" />
    <glyph glyph-name="B" unicode="B" horiz-adv-x="585" 
d="M78 0v693h215c162 0 225 -66 225 -175c0 -69 -29 -123 -113 -150v-4c87 -16 143 -67 143 -167c0 -114 -79 -197 -237 -197h-233zM169 76h136c97 0 147 41 147 125c0 87 -55 121 -153 121h-130v-246zM169 395h109c83 0 146 25 146 111c0 85 -48 110 -139 110h-116v-221z
" />
    <glyph glyph-name="C" unicode="C" horiz-adv-x="565" 
d="M342 -12c-186 0 -304 114 -304 349v24c0 250 143 344 318 344c73 0 128 -15 171 -38v-76c-58 22 -109 36 -177 36c-124 0 -214 -72 -214 -251v-38c0 -171 63 -272 218 -272c84 0 137 23 181 44v-77c-49 -28 -114 -45 -193 -45z" />
    <glyph glyph-name="D" unicode="D" horiz-adv-x="651" 
d="M78 0v693h209c210 0 326 -107 326 -327v-20c0 -216 -100 -346 -324 -346h-211zM169 78h122c155 0 224 76 224 254v34c0 188 -86 249 -236 249h-110v-537z" />
    <glyph glyph-name="E" unicode="E" horiz-adv-x="547" 
d="M78 0v693h413v-77h-322v-220h248v-77h-248v-242h325v-77h-416z" />
    <glyph glyph-name="F" unicode="F" horiz-adv-x="511" 
d="M78 0v693h402v-77h-311v-233h240v-77h-240v-306h-91z" />
    <glyph glyph-name="G" unicode="G" horiz-adv-x="633" 
d="M360 -12c-194 0 -322 103 -322 343v20c0 265 157 354 330 354c86 0 141 -20 182 -42v-78c-42 19 -95 42 -189 42c-170 0 -225 -126 -225 -262v-32c0 -153 44 -268 227 -268c46 0 93 8 123 19v180h-144v76h235v-312c-53 -21 -127 -40 -217 -40z" />
    <glyph glyph-name="H" unicode="H" horiz-adv-x="671" 
d="M78 0v693h91v-296h333v296h91v-693h-91v320h-333v-320h-91z" />
    <glyph glyph-name="I" unicode="I" horiz-adv-x="253" 
d="M81 0v693h91v-693h-91z" />
    <glyph glyph-name="J" unicode="J" horiz-adv-x="422" 
d="M159 -7c-58 0 -95 9 -133 27v73c31 -11 72 -22 125 -22c76 0 106 41 106 112v510h92v-513c0 -104 -56 -187 -190 -187z" />
    <glyph glyph-name="K" unicode="K" horiz-adv-x="586" 
d="M466 0l-269 354l266 339h97l-260 -329l274 -364h-108zM78 0v693h91v-693h-91z" />
    <glyph glyph-name="L" unicode="L" horiz-adv-x="498" 
d="M78 0v693h91v-616h306v-77h-397z" />
    <glyph glyph-name="M" unicode="M" horiz-adv-x="805" 
d="M78 0v693h134l190 -574h3l189 574h133v-693h-91v573h-3l-192 -573h-86l-191 573h-3v-573h-83z" />
    <glyph glyph-name="N" unicode="N" horiz-adv-x="667" 
d="M78 0v693h107l318 -539h3v539h83v-693h-94l-331 568h-3v-568h-83z" />
    <glyph glyph-name="O" unicode="O" horiz-adv-x="687" 
d="M342 -12c-189 0 -304 124 -304 349v20c0 215 115 348 308 348c188 0 303 -124 303 -349v-20c0 -215 -115 -348 -307 -348zM345 63c140 0 206 112 206 258v34c0 161 -55 274 -210 275c-140 0 -205 -111 -205 -257v-34c0 -161 55 -276 209 -276z" />
    <glyph glyph-name="P" unicode="P" horiz-adv-x="554" 
d="M78 0v693h221c153 0 231 -75 231 -206c0 -140 -91 -214 -222 -214h-139v-273h-91zM169 349h119c104 0 145 42 145 131c0 97 -39 136 -143 136h-121v-267z" />
    <glyph glyph-name="Q" unicode="Q" horiz-adv-x="687" 
d="M649 336c0 -176 -74 -285 -208 -322l232 -56l-23 -81l-393 117c-143 43 -219 153 -219 343v20c0 215 115 348 308 348c188 0 303 -124 303 -349v-20zM345 61c140 0 206 114 206 260v34c0 161 -55 274 -210 275c-140 0 -205 -111 -205 -257v-34c0 -161 55 -278 209 -278z
" />
    <glyph glyph-name="R" unicode="R" horiz-adv-x="578" 
d="M78 0v693h204c152 0 232 -67 232 -197c0 -99 -50 -152 -131 -181v-5l181 -310h-104l-167 293h-124v-293h-91zM169 365h107c101 0 141 41 141 129c0 87 -42 122 -142 122h-106v-251z" />
    <glyph glyph-name="S" unicode="S" horiz-adv-x="497" 
d="M227 -13c-87 0 -152 20 -199 46v77c54 -27 122 -45 194 -45c101 0 146 47 146 119c0 66 -29 94 -110 121l-72 24c-93 31 -149 82 -149 189c0 109 74 187 219 187c84 0 131 -19 170 -38v-77c-42 19 -97 37 -173 37c-79 0 -125 -37 -125 -101c0 -63 22 -91 95 -115l72 -24
c102 -34 166 -79 166 -196c0 -122 -71 -204 -234 -204z" />
    <glyph glyph-name="T" unicode="T" horiz-adv-x="537" 
d="M223 0v616h-205v77h501v-77h-205v-616h-91z" />
    <glyph glyph-name="U" unicode="U" horiz-adv-x="655" 
d="M331 -13c-165 0 -258 82 -258 254v452h91v-446c0 -145 60 -188 171 -188c110 0 163 42 163 189v445h84v-449c0 -179 -84 -257 -251 -257z" />
    <glyph glyph-name="V" unicode="V" horiz-adv-x="599" 
d="M257 0l-249 693h95l200 -571h3l199 571h86l-249 -693h-85z" />
    <glyph glyph-name="W" unicode="W" horiz-adv-x="861" 
d="M190 0l-174 693h92l131 -550h3l157 550h75l154 -550h3l130 550h84l-173 -693h-88l-149 540h-3l-154 -540h-88z" />
    <glyph glyph-name="X" unicode="X" horiz-adv-x="600" 
d="M22 0l227 353l-215 340h102l172 -272h4l160 272h94l-207 -341l219 -352h-102l-178 286h-3l-179 -286h-94z" />
    <glyph glyph-name="Y" unicode="Y" horiz-adv-x="554" 
d="M232 0v268l-226 425h97l178 -339h3l175 339h89l-225 -425v-268h-91z" />
    <glyph glyph-name="Z" unicode="Z" horiz-adv-x="535" 
d="M27 0v69l373 544v3h-346v77h456v-68l-374 -545v-3h361v-77h-470z" />
    <glyph glyph-name="bracketleft" unicode="[" horiz-adv-x="336" 
d="M78 -120v859h226v-70h-138v-719h138v-70h-226z" />
    <glyph glyph-name="backslash" unicode="\" horiz-adv-x="346" 
d="M262 -120l-240 859h79l240 -859h-79z" />
    <glyph glyph-name="bracketright" unicode="]" horiz-adv-x="336" 
d="M32 -120v70h138v719h-138v70h226v-859h-226z" />
    <glyph glyph-name="asciicircum" unicode="^" horiz-adv-x="453" 
d="M44 452l146 241h74l145 -241h-78l-104 160l-105 -160h-78z" />
    <glyph glyph-name="underscore" unicode="_" horiz-adv-x="320" 
d="M-5 -120v59h330v-59h-330z" />
    <glyph glyph-name="grave" unicode="`" 
d="M211 587l-107 145h99l86 -145h-78z" />
    <glyph glyph-name="a" unicode="a" horiz-adv-x="469" 
d="M189 -10c-92 0 -159 47 -159 146c0 89 58 137 155 149l136 17v48c0 78 -34 97 -126 97c-50 0 -91 -8 -122 -15v63c46 18 95 28 157 28c114 0 179 -48 179 -151v-372h-71l-9 43h-6c-25 -29 -66 -53 -134 -53zM212 58c44 0 87 15 109 35v142l-113 -12
c-58 -6 -87 -29 -87 -85c0 -54 36 -80 91 -80z" />
    <glyph glyph-name="b" unicode="b" horiz-adv-x="544" 
d="M252 -13c-59 0 -145 11 -189 28v724h88v-257h5c39 24 86 41 155 41c96 0 199 -59 199 -250v-15c0 -171 -89 -271 -258 -271zM258 61c85 0 161 40 161 184v22c0 136 -47 181 -150 181c-48 0 -94 -19 -118 -29v-341c22 -8 56 -17 107 -17z" />
    <glyph glyph-name="c" unicode="c" horiz-adv-x="443" 
d="M270 -10c-146 0 -239 83 -239 255v17c0 181 109 261 244 261c67 0 106 -13 140 -34v-73c-46 19 -78 32 -146 32c-91 0 -147 -62 -147 -173v-27c0 -129 54 -183 158 -183c69 0 115 23 141 36v-70c-34 -22 -80 -41 -151 -41z" />
    <glyph glyph-name="d" unicode="d" horiz-adv-x="544" 
d="M246 -10c-99 0 -212 61 -212 250v14c0 188 96 269 228 269c62 0 104 -16 131 -32v248h88v-739h-74l-9 41h-5c-30 -30 -79 -51 -147 -51zM274 62c57 0 97 23 119 41v314c-22 18 -69 31 -120 31c-93 0 -148 -48 -148 -182v-22c0 -139 60 -182 149 -182z" />
    <glyph glyph-name="e" unicode="e" horiz-adv-x="496" 
d="M276 -10c-162 0 -245 100 -245 259v15c0 179 107 259 226 259c141 0 208 -81 208 -242v-50h-343c6 -122 66 -165 168 -165c69 0 113 15 160 39v-65c-31 -23 -89 -50 -174 -50zM253 452c-57 0 -123 -32 -131 -150h250c0 108 -41 150 -119 150z" />
    <glyph glyph-name="f" unicode="f" horiz-adv-x="314" 
d="M92 0v440h-75v73h75v73c0 113 68 162 161 162c42 0 70 -9 88 -18v-63c-14 3 -37 8 -72 8c-57 0 -89 -28 -89 -96v-66h117v-73h-117v-440h-88z" />
    <glyph glyph-name="g" unicode="g" horiz-adv-x="503" 
d="M244 -199c-156 0 -232 51 -232 130c0 55 43 92 96 110v5c-30 11 -52 36 -52 71s18 69 59 99c-39 26 -64 68 -64 128v10c0 108 82 169 196 169c26 0 51 -3 74 -9h175v-67h-87c21 -23 32 -52 32 -89v-10c0 -111 -87 -165 -195 -165c-31 0 -60 4 -86 12
c-12 -11 -21 -27 -21 -43c0 -28 15 -44 48 -44h141c94 0 163 -35 163 -135c0 -94 -72 -172 -247 -172zM242 -127c116 0 157 34 157 86c0 46 -21 65 -87 65h-145c-35 -12 -62 -39 -62 -80c0 -47 41 -71 137 -71zM246 250c68 0 107 31 107 94v15c0 67 -42 97 -107 97
c-68 0 -107 -35 -107 -95v-15c0 -65 42 -96 107 -96z" />
    <glyph glyph-name="h" unicode="h" horiz-adv-x="534" 
d="M63 0v739h88v-268h5c42 29 106 52 169 52c101 0 149 -42 149 -141v-382h-88v363c0 59 -19 84 -100 84c-45 0 -98 -17 -135 -34v-413h-88z" />
    <glyph glyph-name="i" unicode="i" horiz-adv-x="220" 
d="M66 0v513h88v-513h-88zM65 615v91h90v-91h-90z" />
    <glyph glyph-name="j" unicode="j" horiz-adv-x="220" 
d="M12 -199c-36 0 -58 6 -78 17v61c18 -3 38 -6 55 -6c48 0 77 23 77 77v563h88v-568c0 -83 -42 -144 -142 -144zM65 615v91h90v-91h-90z" />
    <glyph glyph-name="k" unicode="k" horiz-adv-x="478" 
d="M63 0v739h88v-739h-88zM367 0l-192 265l182 248h95l-181 -242l197 -271h-101z" />
    <glyph glyph-name="l" unicode="l" horiz-adv-x="220" 
d="M66 0v739h88v-739h-88z" />
    <glyph glyph-name="m" unicode="m" horiz-adv-x="809" 
d="M63 0v513h84v-44h5c43 29 99 54 156 54c58 0 99 -18 123 -57h5c54 36 113 57 171 57c90 0 142 -42 142 -141v-382h-88v363c0 59 -21 84 -89 84c-38 0 -80 -14 -124 -35c1 -10 2 -19 2 -30v-382h-88v363c0 59 -21 84 -89 84c-41 0 -85 -16 -122 -34v-413h-88z" />
    <glyph glyph-name="n" unicode="n" horiz-adv-x="534" 
d="M63 0v513h84v-44h5c43 30 110 54 173 54c101 0 149 -42 149 -141v-382h-88v363c0 59 -19 84 -100 84c-45 0 -98 -17 -135 -34v-413h-88z" />
    <glyph glyph-name="o" unicode="o" horiz-adv-x="531" 
d="M265 -10c-148 0 -234 95 -234 256v17c0 161 94 260 235 260c147 0 234 -96 234 -257v-16c0 -162 -94 -260 -235 -260zM267 62c89 0 142 63 142 178v28c0 139 -65 183 -145 183c-90 0 -142 -65 -142 -179v-28c0 -139 65 -182 145 -182z" />
    <glyph glyph-name="p" unicode="p" horiz-adv-x="544" 
d="M63 -195v708h84v-41h5c31 29 85 51 148 51c111 0 210 -63 210 -252v-14c0 -188 -90 -267 -231 -267c-58 0 -101 17 -128 33v-218h-88zM271 62c93 0 148 49 148 183v22c0 139 -51 181 -143 181c-57 0 -103 -19 -125 -35v-316c22 -18 68 -35 120 -35z" />
    <glyph glyph-name="q" unicode="q" horiz-adv-x="541" 
d="M393 -195v226h-5c-25 -18 -71 -41 -142 -41c-99 0 -212 61 -212 250v14c0 206 116 269 253 269c89 0 151 -16 194 -37v-681h-88zM274 64c57 0 97 21 119 39v333c-26 7 -66 16 -112 16c-94 0 -156 -51 -156 -186v-22c0 -139 58 -180 149 -180z" />
    <glyph glyph-name="r" unicode="r" horiz-adv-x="338" 
d="M63 0v513h84v-57h5c29 34 84 63 139 63c13 0 27 -2 32 -4v-78c-13 2 -30 3 -39 3c-48 0 -97 -16 -133 -40v-400h-88z" />
    <glyph glyph-name="s" unicode="s" horiz-adv-x="409" 
d="M195 -9c-66 0 -123 12 -166 36v70c44 -17 81 -32 154 -32c76 0 109 26 109 71c0 42 -21 63 -84 80l-49 13c-74 20 -128 54 -128 143c0 90 57 151 180 151c69 0 111 -15 140 -30v-71c-26 12 -79 27 -136 27c-66 0 -100 -23 -100 -68c0 -42 22 -59 74 -73l49 -13
c100 -27 141 -60 141 -151c0 -101 -72 -153 -184 -153z" />
    <glyph glyph-name="t" unicode="t" horiz-adv-x="342" 
d="M229 -6c-82 0 -139 35 -139 126v320h-73v73h73v122h88v-122h129v-73h-129v-307c0 -49 16 -67 74 -67c21 0 45 3 65 8v-59c-21 -10 -42 -21 -88 -21z" />
    <glyph glyph-name="u" unicode="u" horiz-adv-x="527" 
d="M217 -10c-101 0 -157 52 -157 151v372h88v-358c0 -63 21 -89 95 -89c53 0 96 18 133 37v410h88v-513h-75l-9 44h-5c-43 -30 -95 -54 -158 -54z" />
    <glyph glyph-name="v" unicode="v" horiz-adv-x="490" 
d="M201 0l-189 513h95l139 -402h4l142 402h86l-189 -513h-88z" />
    <glyph glyph-name="w" unicode="w" horiz-adv-x="734" 
d="M161 0l-145 513h94l101 -400h4l118 400h77l119 -400h4l101 400h84l-145 -513h-89l-114 378h-4l-115 -378h-90z" />
    <glyph glyph-name="x" unicode="x" horiz-adv-x="475" 
d="M15 0l172 261l-165 252h101l122 -190l110 190h92l-157 -252l170 -261h-101l-124 198l-127 -198h-93z" />
    <glyph glyph-name="y" unicode="y" horiz-adv-x="479" 
d="M96 -199c-24 0 -51 7 -66 15v62c13 -2 31 -4 50 -4c47 0 80 22 102 77l23 59l-197 503h95l145 -387h3l133 387h87l-208 -574c-35 -98 -80 -138 -167 -138z" />
    <glyph glyph-name="z" unicode="z" horiz-adv-x="447" 
d="M32 0v65l274 373v3h-259v72h366v-63l-274 -375v-3h273v-72h-380z" />
    <glyph glyph-name="braceleft" unicode="{" horiz-adv-x="374" 
d="M342 -122c-179 4 -213 76 -213 163v141c0 64 -27 86 -113 91v72c86 5 113 28 113 92v141c0 87 34 159 213 163v-70c-88 -6 -125 -22 -125 -97v-141c0 -55 -17 -105 -106 -122v-3c89 -17 106 -67 106 -122v-141c0 -75 37 -91 125 -97v-70z" />
    <glyph glyph-name="bar" unicode="|" horiz-adv-x="290" 
d="M107 -120v859h76v-859h-76z" />
    <glyph glyph-name="braceright" unicode="}" horiz-adv-x="374" 
d="M32 -122v70c88 6 125 22 125 97v141c0 55 17 105 106 122v3c-89 17 -106 67 -106 122v141c0 75 -37 91 -125 97v70c179 -4 213 -76 213 -163v-141c0 -64 27 -86 113 -91v-72c-86 -5 -113 -28 -113 -92v-141c0 -87 -34 -159 -213 -163z" />
    <glyph glyph-name="asciitilde" unicode="~" horiz-adv-x="392" 
d="M36 240c11 85 56 112 104 112c45 0 83 -36 113 -36c19 0 34 13 39 38h64c-11 -85 -56 -112 -104 -112c-45 0 -83 36 -113 36c-19 0 -34 -13 -39 -38h-64z" />
    <glyph glyph-name="Adieresis" unicode="&#xc4;" horiz-adv-x="605" 
d="M7 0l252 693h89l250 -693h-95l-70 195h-271l-69 -195h-86zM295 572l-106 -300h216l-107 300h-3zM346 746v89h86v-89h-86zM172 746v89h86v-89h-86z" />
    <glyph glyph-name="Aring" unicode="&#xc5;" horiz-adv-x="605" 
d="M7 0l252 693h89l250 -693h-95l-70 195h-271l-69 -195h-86zM295 572l-106 -300h216l-107 300h-3zM302 729c-55 0 -96 42 -96 92s41 92 96 92s96 -42 96 -92s-41 -92 -96 -92zM302 772c29 0 48 19 48 49c0 29 -19 49 -48 49s-48 -20 -48 -49c0 -30 19 -49 48 -49z" />
    <glyph glyph-name="Ccedilla" unicode="&#xc7;" horiz-adv-x="565" 
d="M342 -12h-17v-36c60 -3 96 -26 96 -70c0 -59 -44 -90 -174 -99v52c73 6 102 18 102 41c0 24 -26 31 -81 31v88c-143 27 -230 140 -230 342v24c0 250 143 344 318 344c73 0 128 -15 171 -38v-76c-58 22 -109 36 -177 36c-124 0 -214 -72 -214 -251v-38
c0 -171 63 -272 218 -272c84 0 137 23 181 44v-77c-49 -28 -114 -45 -193 -45z" />
    <glyph glyph-name="Eacute" unicode="&#xc9;" horiz-adv-x="547" 
d="M78 0v693h413v-77h-322v-220h248v-77h-248v-242h325v-77h-416zM244 740l73 125h99l-94 -125h-78z" />
    <glyph glyph-name="Ntilde" unicode="&#xd1;" horiz-adv-x="667" 
d="M78 0v693h107l318 -539h3v539h83v-693h-94l-331 568h-3v-568h-83zM203 745c8 74 53 104 96 104s78 -31 106 -31c19 0 31 10 36 33h60c-8 -74 -53 -104 -96 -104s-78 31 -106 31c-19 0 -31 -10 -36 -33h-60z" />
    <glyph glyph-name="Odieresis" unicode="&#xd6;" horiz-adv-x="687" 
d="M342 -12c-189 0 -304 124 -304 349v20c0 215 115 348 308 348c188 0 303 -124 303 -349v-20c0 -215 -115 -348 -307 -348zM345 63c140 0 206 112 206 258v34c0 161 -55 274 -210 275c-140 0 -205 -111 -205 -257v-34c0 -161 55 -276 209 -276zM387 746v89h86v-89h-86z
M213 746v89h86v-89h-86z" />
    <glyph glyph-name="Udieresis" unicode="&#xdc;" horiz-adv-x="655" 
d="M331 -13c-165 0 -258 82 -258 254v452h91v-446c0 -145 60 -188 171 -188c110 0 163 42 163 189v445h84v-449c0 -179 -84 -257 -251 -257zM375 746v89h86v-89h-86zM201 746v89h86v-89h-86z" />
    <glyph glyph-name="aacute" unicode="&#xe1;" horiz-adv-x="469" 
d="M189 -10c-92 0 -159 47 -159 146c0 89 58 137 155 149l136 17v48c0 78 -34 97 -126 97c-50 0 -91 -8 -122 -15v63c46 18 95 28 157 28c114 0 179 -48 179 -151v-372h-71l-9 43h-6c-25 -29 -66 -53 -134 -53zM212 58c44 0 87 15 109 35v142l-113 -12
c-58 -6 -87 -29 -87 -85c0 -54 36 -80 91 -80zM183 587l86 145h99l-107 -145h-78z" />
    <glyph glyph-name="agrave" unicode="&#xe0;" horiz-adv-x="469" 
d="M189 -10c-92 0 -159 47 -159 146c0 89 58 137 155 149l136 17v48c0 78 -34 97 -126 97c-50 0 -91 -8 -122 -15v63c46 18 95 28 157 28c114 0 179 -48 179 -151v-372h-71l-9 43h-6c-25 -29 -66 -53 -134 -53zM212 58c44 0 87 15 109 35v142l-113 -12
c-58 -6 -87 -29 -87 -85c0 -54 36 -80 91 -80zM196 587l-107 145h99l86 -145h-78z" />
    <glyph glyph-name="acircumflex" unicode="&#xe2;" horiz-adv-x="469" 
d="M189 -10c-92 0 -159 47 -159 146c0 89 58 137 155 149l136 17v48c0 78 -34 97 -126 97c-50 0 -91 -8 -122 -15v63c46 18 95 28 157 28c114 0 179 -48 179 -151v-372h-71l-9 43h-6c-25 -29 -66 -53 -134 -53zM212 58c44 0 87 15 109 35v142l-113 -12
c-58 -6 -87 -29 -87 -85c0 -54 36 -80 91 -80zM96 587l102 144h76l102 -144h-70l-71 78l-69 -78h-70z" />
    <glyph glyph-name="adieresis" unicode="&#xe4;" horiz-adv-x="469" 
d="M189 -10c-92 0 -159 47 -159 146c0 89 58 137 155 149l136 17v48c0 78 -34 97 -126 97c-50 0 -91 -8 -122 -15v63c46 18 95 28 157 28c114 0 179 -48 179 -151v-372h-71l-9 43h-6c-25 -29 -66 -53 -134 -53zM212 58c44 0 87 15 109 35v142l-113 -12
c-58 -6 -87 -29 -87 -85c0 -54 36 -80 91 -80zM279 615v89h86v-89h-86zM109 615v89h86v-89h-86z" />
    <glyph glyph-name="atilde" unicode="&#xe3;" horiz-adv-x="469" 
d="M189 -10c-92 0 -159 47 -159 146c0 89 58 137 155 149l136 17v48c0 78 -34 97 -126 97c-50 0 -91 -8 -122 -15v63c46 18 95 28 157 28c114 0 179 -48 179 -151v-372h-71l-9 43h-6c-25 -29 -66 -53 -134 -53zM212 58c44 0 87 15 109 35v142l-113 -12
c-58 -6 -87 -29 -87 -85c0 -54 36 -80 91 -80zM87 604c8 76 53 108 96 108s78 -35 106 -35c19 0 31 12 36 37h60c-8 -76 -53 -108 -96 -108s-78 35 -106 35c-19 0 -31 -12 -36 -37h-60z" />
    <glyph glyph-name="aring" unicode="&#xe5;" horiz-adv-x="469" 
d="M189 -10c-92 0 -159 47 -159 146c0 89 58 137 155 149l136 17v48c0 78 -34 97 -126 97c-50 0 -91 -8 -122 -15v63c46 18 95 28 157 28c114 0 179 -48 179 -151v-372h-71l-9 43h-6c-25 -29 -66 -53 -134 -53zM212 58c44 0 87 15 109 35v142l-113 -12
c-58 -6 -87 -29 -87 -85c0 -54 36 -80 91 -80zM230 576c-55 0 -96 42 -96 92s41 92 96 92s96 -42 96 -92s-41 -92 -96 -92zM230 619c29 0 48 19 48 49c0 29 -19 49 -48 49s-48 -20 -48 -49c0 -30 19 -49 48 -49z" />
    <glyph glyph-name="ccedilla" unicode="&#xe7;" horiz-adv-x="443" 
d="M270 -10h-14v-38c60 -3 96 -26 96 -70c0 -59 -44 -90 -174 -99v52c73 6 102 18 102 41c0 24 -26 31 -81 31v91c-105 23 -168 105 -168 247v17c0 181 109 261 244 261c67 0 106 -13 140 -34v-73c-46 19 -78 32 -146 32c-91 0 -147 -62 -147 -173v-27
c0 -129 54 -183 158 -183c69 0 115 23 141 36v-70c-34 -22 -80 -41 -151 -41z" />
    <glyph glyph-name="eacute" unicode="&#xe9;" horiz-adv-x="496" 
d="M276 -10c-162 0 -245 100 -245 259v15c0 179 107 259 226 259c141 0 208 -81 208 -242v-50h-343c6 -122 66 -165 168 -165c69 0 113 15 160 39v-65c-31 -23 -89 -50 -174 -50zM253 452c-57 0 -123 -32 -131 -150h250c0 108 -41 150 -119 150zM210 587l86 145h99
l-107 -145h-78z" />
    <glyph glyph-name="egrave" unicode="&#xe8;" horiz-adv-x="496" 
d="M276 -10c-162 0 -245 100 -245 259v15c0 179 107 259 226 259c141 0 208 -81 208 -242v-50h-343c6 -122 66 -165 168 -165c69 0 113 15 160 39v-65c-31 -23 -89 -50 -174 -50zM253 452c-57 0 -123 -32 -131 -150h250c0 108 -41 150 -119 150zM223 587l-107 145h99
l86 -145h-78z" />
    <glyph glyph-name="ecircumflex" unicode="&#xea;" horiz-adv-x="496" 
d="M276 -10c-162 0 -245 100 -245 259v15c0 179 107 259 226 259c141 0 208 -81 208 -242v-50h-343c6 -122 66 -165 168 -165c69 0 113 15 160 39v-65c-31 -23 -89 -50 -174 -50zM253 452c-57 0 -123 -32 -131 -150h250c0 108 -41 150 -119 150zM117 587l102 144h76
l102 -144h-70l-71 78l-69 -78h-70z" />
    <glyph glyph-name="edieresis" unicode="&#xeb;" horiz-adv-x="496" 
d="M276 -10c-162 0 -245 100 -245 259v15c0 179 107 259 226 259c141 0 208 -81 208 -242v-50h-343c6 -122 66 -165 168 -165c69 0 113 15 160 39v-65c-31 -23 -89 -50 -174 -50zM253 452c-57 0 -123 -32 -131 -150h250c0 108 -41 150 -119 150zM299 615v89h86v-89h-86z
M129 615v89h86v-89h-86z" />
    <glyph glyph-name="iacute" unicode="&#xed;" horiz-adv-x="220" 
d="M66 0v513h88v-513h-88zM63 587l86 145h99l-107 -145h-78z" />
    <glyph glyph-name="igrave" unicode="&#xec;" horiz-adv-x="220" 
d="M66 0v513h88v-513h-88zM76 587l-107 145h99l86 -145h-78z" />
    <glyph glyph-name="icircumflex" unicode="&#xee;" horiz-adv-x="220" 
d="M66 0v513h88v-513h-88zM-18 587l90 144h76l90 -144h-71l-58 77l-56 -77h-71z" />
    <glyph glyph-name="idieresis" unicode="&#xef;" horiz-adv-x="220" 
d="M142 615v89h86v-89h-86zM-8 615v89h86v-89h-86zM66 0v513h88v-513h-88z" />
    <glyph glyph-name="ntilde" unicode="&#xf1;" horiz-adv-x="534" 
d="M63 0v513h84v-44h5c43 30 110 54 173 54c101 0 149 -42 149 -141v-382h-88v363c0 59 -19 84 -100 84c-45 0 -98 -17 -135 -34v-413h-88zM121 604c8 76 53 108 96 108s78 -35 106 -35c19 0 31 12 36 37h60c-8 -76 -53 -108 -96 -108s-78 35 -106 35c-19 0 -31 -12 -36 -37
h-60z" />
    <glyph glyph-name="oacute" unicode="&#xf3;" horiz-adv-x="531" 
d="M265 -10c-148 0 -234 95 -234 256v17c0 161 94 260 235 260c147 0 234 -96 234 -257v-16c0 -162 -94 -260 -235 -260zM267 62c89 0 142 63 142 178v28c0 139 -65 183 -145 183c-90 0 -142 -65 -142 -179v-28c0 -139 65 -182 145 -182zM218 587l86 145h99l-107 -145h-78z
" />
    <glyph glyph-name="ograve" unicode="&#xf2;" horiz-adv-x="531" 
d="M265 -10c-148 0 -234 95 -234 256v17c0 161 94 260 235 260c147 0 234 -96 234 -257v-16c0 -162 -94 -260 -235 -260zM267 62c89 0 142 63 142 178v28c0 139 -65 183 -145 183c-90 0 -142 -65 -142 -179v-28c0 -139 65 -182 145 -182zM231 587l-107 145h99l86 -145h-78z
" />
    <glyph glyph-name="ocircumflex" unicode="&#xf4;" horiz-adv-x="531" 
d="M265 -10c-148 0 -234 95 -234 256v17c0 161 94 260 235 260c147 0 234 -96 234 -257v-16c0 -162 -94 -260 -235 -260zM267 62c89 0 142 63 142 178v28c0 139 -65 183 -145 183c-90 0 -142 -65 -142 -179v-28c0 -139 65 -182 145 -182zM125 587l102 144h76l102 -144h-70
l-71 78l-69 -78h-70z" />
    <glyph glyph-name="odieresis" unicode="&#xf6;" horiz-adv-x="531" 
d="M265 -10c-148 0 -234 95 -234 256v17c0 161 94 260 235 260c147 0 234 -96 234 -257v-16c0 -162 -94 -260 -235 -260zM267 62c89 0 142 63 142 178v28c0 139 -65 183 -145 183c-90 0 -142 -65 -142 -179v-28c0 -139 65 -182 145 -182zM307 615v89h86v-89h-86zM137 615v89
h86v-89h-86z" />
    <glyph glyph-name="otilde" unicode="&#xf5;" horiz-adv-x="531" 
d="M265 -10c-148 0 -234 95 -234 256v17c0 161 94 260 235 260c147 0 234 -96 234 -257v-16c0 -162 -94 -260 -235 -260zM267 62c89 0 142 63 142 178v28c0 139 -65 183 -145 183c-90 0 -142 -65 -142 -179v-28c0 -139 65 -182 145 -182zM116 604c8 76 53 108 96 108
s78 -35 106 -35c19 0 31 12 36 37h60c-8 -76 -53 -108 -96 -108s-78 35 -106 35c-19 0 -31 -12 -36 -37h-60z" />
    <glyph glyph-name="uacute" unicode="&#xfa;" horiz-adv-x="527" 
d="M217 -10c-101 0 -157 52 -157 151v372h88v-358c0 -63 21 -89 95 -89c53 0 96 18 133 37v410h88v-513h-75l-9 44h-5c-43 -30 -95 -54 -158 -54zM217 587l86 145h99l-107 -145h-78z" />
    <glyph glyph-name="ugrave" unicode="&#xf9;" horiz-adv-x="527" 
d="M217 -10c-101 0 -157 52 -157 151v372h88v-358c0 -63 21 -89 95 -89c53 0 96 18 133 37v410h88v-513h-75l-9 44h-5c-43 -30 -95 -54 -158 -54zM230 587l-107 145h99l86 -145h-78z" />
    <glyph glyph-name="ucircumflex" unicode="&#xfb;" horiz-adv-x="527" 
d="M217 -10c-101 0 -157 52 -157 151v372h88v-358c0 -63 21 -89 95 -89c53 0 96 18 133 37v410h88v-513h-75l-9 44h-5c-43 -30 -95 -54 -158 -54zM124 587l102 144h76l102 -144h-70l-71 78l-69 -78h-70z" />
    <glyph glyph-name="udieresis" unicode="&#xfc;" horiz-adv-x="527" 
d="M217 -10c-101 0 -157 52 -157 151v372h88v-358c0 -63 21 -89 95 -89c53 0 96 18 133 37v410h88v-513h-75l-9 44h-5c-43 -30 -95 -54 -158 -54zM306 615v89h86v-89h-86zM136 615v89h86v-89h-86z" />
    <glyph glyph-name="dagger" unicode="&#x2020;" horiz-adv-x="471" 
d="M195 -69v489h-160v77h160v196h81v-196h160v-77h-160v-489h-81z" />
    <glyph glyph-name="degree" unicode="&#xb0;" horiz-adv-x="358" 
d="M179 429c-81 0 -139 63 -139 137c0 75 58 138 139 138s139 -63 139 -138c0 -74 -58 -137 -139 -137zM179 483c46 0 72 36 72 83s-26 84 -72 84s-72 -37 -72 -84s26 -83 72 -83z" />
    <glyph glyph-name="cent" unicode="&#xa2;" horiz-adv-x="439" 
d="M179 -119l17 117c-103 25 -165 106 -165 247v17c0 180 107 260 241 261l10 63h67l-10 -68c31 -6 54 -16 76 -29v-71c-31 12 -55 22 -87 27l-57 -383h9c69 0 115 22 141 33v-63c-34 -23 -80 -42 -151 -42h-9l-16 -109h-66zM122 248c0 -95 29 -151 85 -174l55 376
c-87 -3 -140 -67 -140 -175v-27z" />
    <glyph glyph-name="sterling" unicode="&#xa3;" horiz-adv-x="521" 
d="M46 310v68h79v102c0 161 111 225 222 225c57 0 104 -13 135 -31v-69c-39 14 -68 22 -120 22c-73 0 -146 -29 -146 -151v-98h185v-68h-185v-59c0 -89 -21 -133 -68 -172v-2h340v-77h-451v67c59 35 88 84 88 180v63h-79z" />
    <glyph glyph-name="section" unicode="&#xa7;" horiz-adv-x="490" 
d="M229 -132c-71 0 -122 14 -166 39v72c47 -19 83 -35 156 -35c83 0 122 30 122 82c0 48 -17 66 -87 87l-87 27c-81 25 -141 67 -141 160c0 67 35 106 95 127c-30 25 -48 62 -48 118c0 94 67 160 196 160c73 0 110 -18 142 -34v-72c-30 14 -78 30 -140 30
c-70 0 -113 -26 -113 -75c0 -48 13 -67 69 -85l96 -30c97 -30 148 -64 148 -162c0 -70 -36 -108 -94 -129c36 -26 53 -62 53 -114c0 -107 -75 -166 -201 -166zM291 362l-98 30c-53 -9 -81 -40 -81 -84c0 -48 22 -73 82 -91l92 -28l15 -5c53 12 82 43 82 86
c0 49 -23 71 -92 92z" />
    <glyph glyph-name="bullet" unicode="&#x2022;" horiz-adv-x="353" 
d="M175 192c-71 0 -128 59 -128 131c0 74 57 131 128 131c70 0 131 -57 131 -131c0 -72 -61 -131 -131 -131z" />
    <glyph glyph-name="paragraph" unicode="&#xb6;" horiz-adv-x="567" 
d="M276 -120v457h-49c-103 0 -196 61 -196 177c0 96 59 179 229 179h229v-813h-65v756h-83v-756h-65z" />
    <glyph glyph-name="germandbls" unicode="&#xdf;" horiz-adv-x="556" 
d="M359 -10c-55 0 -90 7 -130 26v71c42 -15 70 -23 119 -23c62 0 96 26 96 66c0 33 -18 53 -63 78l-45 25c-64 36 -95 67 -95 133c0 100 143 153 143 231c0 52 -40 79 -105 79c-76 0 -128 -44 -128 -138v-538h-88v546c0 141 110 202 216 202c121 0 191 -52 191 -145
c0 -115 -146 -167 -146 -227c0 -33 18 -51 56 -72l52 -29c64 -36 99 -73 99 -139c0 -96 -70 -146 -172 -146z" />
    <glyph glyph-name="registered" unicode="&#xae;" horiz-adv-x="433" 
d="M216 314c-110 0 -195 89 -195 197c0 109 85 196 195 196s196 -87 196 -196c0 -108 -86 -197 -196 -197zM216 347c93 0 156 72 156 164c0 90 -63 164 -156 164s-155 -74 -155 -164c0 -92 62 -164 155 -164zM151 420v187h71c46 0 73 -18 73 -57c0 -27 -14 -40 -33 -47v-3
l43 -80h-49l-37 71h-21v-71h-47zM198 526h21c22 0 28 8 28 23c0 16 -7 22 -28 22h-21v-45z" />
    <glyph glyph-name="copyright" unicode="&#xa9;" horiz-adv-x="800" 
d="M399 -14c-203 0 -354 161 -354 358s151 356 354 356c202 0 356 -159 356 -356s-154 -358 -356 -358zM399 36c172 0 296 129 296 308s-124 306 -296 306c-173 0 -294 -127 -294 -306s121 -308 294 -308zM408 146c-106 0 -177 63 -177 193v12c0 138 84 191 183 191
c44 0 76 -11 96 -22v-63c-31 12 -60 19 -100 19c-57 0 -96 -34 -96 -117v-20c0 -85 31 -128 104 -128c46 0 73 13 96 25v-63c-25 -14 -61 -27 -106 -27z" />
    <glyph glyph-name="trademark" unicode="&#x2122;" horiz-adv-x="650" 
d="M303 404v289h86l73 -212h3l76 212h84v-289h-62v210h-3l-72 -210h-56l-71 210h-3v-210h-55zM103 404v237h-86v52h235v-52h-87v-237h-62z" />
    <glyph glyph-name="acute" unicode="&#xb4;" 
d="M205 587l86 145h99l-107 -145h-78z" />
    <glyph glyph-name="dieresis" unicode="&#xa8;" 
d="M289 615v89h86v-89h-86zM119 615v89h86v-89h-86z" />
    <glyph glyph-name="AE" unicode="&#xc6;" horiz-adv-x="893" 
d="M0 0l375 693h463v-77h-322v-220h248v-77h-248v-242h325v-77h-416v200h-228l-106 -200h-91zM421 622l-183 -345h187v345h-4z" />
    <glyph glyph-name="Oslash" unicode="&#xd8;" horiz-adv-x="687" 
d="M342 -12c-81 0 -149 23 -200 68l-46 -56h-88l89 108c-38 57 -59 134 -59 229v20c0 215 115 348 308 348c76 0 142 -22 192 -63l42 51h87l-83 -101c42 -58 65 -137 65 -236v-20c0 -215 -115 -348 -307 -348zM345 63c140 0 206 112 206 258v34c0 63 -8 119 -28 163
l-328 -398c33 -36 81 -57 150 -57zM136 339c0 -60 6 -113 23 -156l325 394c-33 33 -79 52 -143 53c-140 1 -205 -111 -205 -257v-34z" />
    <glyph glyph-name="yen" unicode="&#xa5;" horiz-adv-x="580" 
d="M249 0v141h-163v73h163v68h-163v73h142l-197 338h100l164 -292h5l164 292h91l-197 -338h144v-73h-163v-68h163v-73h-163v-141h-90z" />
    <glyph glyph-name="ordfeminine" unicode="&#xaa;" horiz-adv-x="435" 
d="M172 222c-83 0 -143 43 -143 132c0 81 53 125 141 136l120 14v41c0 69 -30 85 -112 85c-45 0 -82 -8 -111 -14v61c43 16 88 25 145 25c103 0 163 -43 163 -137v-334h-69l-8 39h-6c-22 -26 -59 -48 -120 -48zM195 287c38 0 76 12 95 30v126l-97 -11
c-50 -6 -77 -26 -77 -75c0 -48 31 -70 79 -70z" />
    <glyph glyph-name="ordmasculine" unicode="&#xba;" horiz-adv-x="486" 
d="M242 222c-134 0 -212 86 -212 231v15c0 146 86 234 213 234c134 0 213 -86 213 -231v-15c0 -146 -86 -234 -214 -234zM244 290c78 0 124 55 124 157v26c0 123 -57 161 -127 161c-78 0 -124 -56 -124 -158v-25c0 -123 57 -161 127 -161z" />
    <glyph glyph-name="ae" unicode="&#xe6;" horiz-adv-x="786" 
d="M189 -10c-92 0 -159 47 -159 146c0 89 58 136 155 148l136 17v49c0 78 -34 97 -126 97c-50 0 -91 -8 -122 -15v63c46 18 95 28 157 28c80 0 132 -26 154 -79c39 53 97 79 163 79c141 0 208 -81 208 -242v-46h-343c5 -125 65 -169 168 -169c69 0 113 15 160 39v-65
c-31 -23 -89 -50 -174 -50c-88 0 -153 29 -193 82c-46 -49 -100 -82 -184 -82zM345 119c-15 34 -23 74 -24 119l-113 -14c-58 -6 -87 -30 -87 -86c0 -54 36 -80 91 -80c50 0 95 22 133 61zM543 452c-56 0 -122 -32 -130 -149h249c0 107 -41 149 -119 149z" />
    <glyph glyph-name="oslash" unicode="&#xf8;" horiz-adv-x="531" 
d="M265 -10c-63 0 -115 17 -153 49l-34 -39h-79l73 84c-27 41 -41 96 -41 162v17c0 161 94 260 235 260c59 0 109 -16 147 -45l31 35h79l-69 -79c30 -43 46 -100 46 -168v-16c0 -162 -94 -260 -235 -260zM267 61c89 0 142 64 142 179v28c0 40 -5 72 -14 98l-233 -269
c25 -26 60 -36 105 -36zM122 244c0 -37 3 -66 10 -91l230 266c-25 23 -58 33 -98 33c-90 0 -142 -66 -142 -180v-28z" />
    <glyph glyph-name="questiondown" unicode="&#xbf;" horiz-adv-x="414" 
d="M230 -132c-108 0 -198 48 -198 170c0 85 29 114 104 176c47 39 75 59 75 108v43h83v-49c0 -71 -37 -99 -104 -155c-44 -36 -62 -62 -62 -121c0 -72 46 -96 123 -96c61 0 92 10 137 25v-71c-47 -20 -94 -30 -158 -30zM201 472v101h100v-101h-100z" />
    <glyph glyph-name="exclamdown" unicode="&#xa1;" horiz-adv-x="279" 
d="M90 -120l11 485h78l11 -485h-100zM89 472v101h100v-101h-100z" />
    <glyph glyph-name="florin" unicode="&#x192;" horiz-adv-x="419" 
d="M34 379v76h94l22 121c22 126 90 172 182 172c44 0 67 -6 84 -13v-66c-21 4 -38 6 -64 6c-62 0 -101 -28 -116 -110l-20 -110h123v-76h-136l-72 -407c-21 -118 -82 -155 -162 -155c-42 0 -67 8 -83 17v64c13 -3 35 -8 56 -8c49 0 90 24 102 91l71 398h-81z" />
    <glyph glyph-name="guillemotleft" unicode="&#xab;" horiz-adv-x="446" 
d="M322 56l-102 180v33l102 180h81l-100 -196l100 -197h-81zM142 56l-102 180v33l102 180h81l-100 -196l100 -197h-81z" />
    <glyph glyph-name="guillemotright" unicode="&#xbb;" horiz-adv-x="446" 
d="M223 56l100 196l-100 197h81l102 -180v-33l-102 -180h-81zM43 56l100 196l-100 197h81l102 -180v-33l-102 -180h-81z" />
    <glyph glyph-name="ellipsis" unicode="&#x2026;" horiz-adv-x="728" 
d="M552 0v101h100v-101h-100zM76 0v101h100v-101h-100zM314 0v101h100v-101h-100z" />
    <glyph glyph-name="uni00A0" unicode="&#xa0;" horiz-adv-x="192" 
 />
    <glyph glyph-name="Agrave" unicode="&#xc0;" horiz-adv-x="605" 
d="M7 0l252 693h89l250 -693h-95l-70 195h-271l-69 -195h-86zM295 572l-106 -300h216l-107 300h-3zM275 740l-88 125h99l67 -125h-78z" />
    <glyph glyph-name="Atilde" unicode="&#xc3;" horiz-adv-x="605" 
d="M7 0l252 693h89l250 -693h-95l-70 195h-271l-69 -195h-86zM295 572l-106 -300h216l-107 300h-3zM153 745c8 74 53 104 96 104s78 -31 106 -31c19 0 31 10 36 33h60c-8 -74 -53 -104 -96 -104s-78 31 -106 31c-19 0 -31 -10 -36 -33h-60z" />
    <glyph glyph-name="Otilde" unicode="&#xd5;" horiz-adv-x="687" 
d="M342 -12c-189 0 -304 124 -304 349v20c0 215 115 348 308 348c188 0 303 -124 303 -349v-20c0 -215 -115 -348 -307 -348zM345 63c140 0 206 112 206 258v34c0 161 -55 274 -210 275c-140 0 -205 -111 -205 -257v-34c0 -161 55 -276 209 -276zM194 745
c8 74 53 104 96 104s78 -31 106 -31c19 0 31 10 36 33h60c-8 -74 -53 -104 -96 -104s-78 31 -106 31c-19 0 -31 -10 -36 -33h-60z" />
    <glyph glyph-name="OE" unicode="&#x152;" horiz-adv-x="934" 
d="M359 0c-205 0 -321 107 -321 327v20c0 216 100 346 319 346h521v-77h-322v-220h248v-77h-248v-242h325v-77h-522zM367 78h98v537h-110c-150 0 -219 -76 -219 -254v-34c0 -188 86 -249 231 -249z" />
    <glyph glyph-name="oe" unicode="&#x153;" horiz-adv-x="874" 
d="M265 -10c-148 0 -234 95 -234 256v17c0 161 94 260 235 260c90 0 154 -37 189 -103c38 70 104 103 180 103c141 0 208 -81 208 -242v-49h-343c6 -123 65 -166 168 -166c69 0 113 15 160 39v-65c-31 -23 -89 -50 -174 -50c-100 0 -165 38 -201 104
c-36 -67 -101 -104 -188 -104zM267 62c89 0 142 63 142 178v28c0 139 -65 183 -145 183c-90 0 -142 -65 -142 -179v-28c0 -139 65 -182 145 -182zM631 452c-57 0 -124 -32 -131 -152h250c0 110 -41 152 -119 152z" />
    <glyph glyph-name="endash" unicode="&#x2013;" horiz-adv-x="425" 
d="M35 252v70h355v-70h-355z" />
    <glyph glyph-name="emdash" unicode="&#x2014;" horiz-adv-x="700" 
d="M35 252v70h630v-70h-630z" />
    <glyph glyph-name="quotedblleft" unicode="&#x201c;" horiz-adv-x="365" 
d="M200 508l33 185h77l-13 -185h-97zM42 508l33 185h77l-13 -185h-97z" />
    <glyph glyph-name="quotedblright" unicode="&#x201d;" horiz-adv-x="365" 
d="M213 508l13 185h97l-33 -185h-77zM55 508l13 185h97l-33 -185h-77z" />
    <glyph glyph-name="quoteleft" unicode="&#x2018;" horiz-adv-x="207" 
d="M42 508l33 185h77l-13 -185h-97z" />
    <glyph glyph-name="quoteright" unicode="&#x2019;" horiz-adv-x="207" 
d="M55 508l13 185h97l-33 -185h-77z" />
    <glyph glyph-name="divide" unicode="&#xf7;" horiz-adv-x="516" 
d="M49 295v77h418v-77h-418zM208 127v101h100v-101h-100zM208 439v101h100v-101h-100z" />
    <glyph glyph-name="ydieresis" unicode="&#xff;" horiz-adv-x="479" 
d="M96 -199c-24 0 -51 7 -66 15v62c13 -2 31 -4 50 -4c47 0 80 22 102 77l23 59l-197 503h95l145 -387h3l133 387h87l-208 -574c-35 -98 -80 -138 -167 -138zM292 615v89h86v-89h-86zM122 615v89h86v-89h-86z" />
    <glyph glyph-name="Ydieresis" unicode="&#x178;" horiz-adv-x="554" 
d="M232 0v268l-226 425h97l178 -339h3l175 339h89l-225 -425v-268h-91zM326 746v89h86v-89h-86zM152 746v89h86v-89h-86z" />
    <glyph glyph-name="fraction" unicode="&#x2044;" horiz-adv-x="236" 
d="M-175 -40l511 753h74l-511 -753h-74z" />
    <glyph glyph-name="Euro" unicode="&#x20ac;" horiz-adv-x="574" 
d="M23 383v73h76c29 196 163 249 283 249c69 0 116 -13 159 -36v-76c-58 22 -100 34 -165 34c-81 0 -163 -29 -182 -171h216v-73h-220v-78h220v-73h-213c22 -132 94 -166 189 -166c74 0 119 22 163 43v-77c-49 -28 -105 -44 -175 -44c-122 0 -243 58 -274 244h-77v73h70v78
h-70z" />
    <glyph glyph-name="guilsinglleft" unicode="&#x2039;" horiz-adv-x="266" 
d="M142 56l-102 180v33l102 180h81l-100 -196l100 -197h-81z" />
    <glyph glyph-name="guilsinglright" unicode="&#x203a;" horiz-adv-x="266" 
d="M43 56l100 196l-100 197h81l102 -180v-33l-102 -180h-81z" />
    <glyph glyph-name="daggerdbl" unicode="&#x2021;" horiz-adv-x="477" 
d="M38 127v77h160v216h-160v77h160v196h81v-196h160v-77h-160v-216h160v-77h-160v-196h-81v196h-160z" />
    <glyph glyph-name="periodcentered" unicode="&#xb7;" horiz-adv-x="252" 
d="M76 273v101h100v-101h-100z" />
    <glyph glyph-name="quotesinglbase" unicode="&#x201a;" horiz-adv-x="207" 
d="M55 -75l13 185h97l-33 -185h-77z" />
    <glyph glyph-name="quotedblbase" unicode="&#x201e;" horiz-adv-x="365" 
d="M213 -75l13 185h97l-33 -185h-77zM55 -75l13 185h97l-33 -185h-77z" />
    <glyph glyph-name="perthousand" unicode="&#x2030;" horiz-adv-x="1237" 
d="M205 322c-100 0 -162 69 -162 180v17c0 108 62 186 162 186s161 -70 161 -179v-17c0 -109 -61 -187 -161 -187zM149 -40l480 753h76l-480 -753h-76zM1033 -9c-100 0 -162 69 -162 180v17c0 108 62 186 162 186s161 -70 161 -179v-17c0 -109 -61 -187 -161 -187zM659 -9
c-100 0 -162 69 -162 180v17c0 108 62 186 162 186s161 -70 161 -179v-17c0 -109 -61 -187 -161 -187zM205 380c54 0 82 37 82 121v25c0 82 -30 121 -82 121s-83 -38 -83 -120v-25c0 -85 29 -122 83 -122zM1033 49c54 0 82 37 82 121v25c0 82 -30 121 -82 121
s-83 -38 -83 -120v-25c0 -85 29 -122 83 -122zM659 49c54 0 82 37 82 121v25c0 82 -30 121 -82 121s-83 -38 -83 -120v-25c0 -85 29 -122 83 -122z" />
    <glyph glyph-name="Acircumflex" unicode="&#xc2;" horiz-adv-x="605" 
d="M7 0l252 693h89l250 -693h-95l-70 195h-271l-69 -195h-86zM295 572l-106 -300h216l-107 300h-3zM167 740l99 124h72l99 -124h-69l-67 60l-65 -60h-69z" />
    <glyph glyph-name="Ecircumflex" unicode="&#xca;" horiz-adv-x="547" 
d="M78 0v693h413v-77h-322v-220h248v-77h-248v-242h325v-77h-416zM154 740l99 124h72l99 -124h-69l-67 60l-65 -60h-69z" />
    <glyph glyph-name="Aacute" unicode="&#xc1;" horiz-adv-x="605" 
d="M7 0l252 693h89l250 -693h-95l-70 195h-271l-69 -195h-86zM295 572l-106 -300h216l-107 300h-3zM257 740l73 125h99l-94 -125h-78z" />
    <glyph glyph-name="Edieresis" unicode="&#xcb;" horiz-adv-x="547" 
d="M78 0v693h413v-77h-322v-220h248v-77h-248v-242h325v-77h-416zM333 746v89h86v-89h-86zM159 746v89h86v-89h-86z" />
    <glyph glyph-name="Egrave" unicode="&#xc8;" horiz-adv-x="547" 
d="M78 0v693h413v-77h-322v-220h248v-77h-248v-242h325v-77h-416zM262 740l-88 125h99l67 -125h-78z" />
    <glyph glyph-name="Iacute" unicode="&#xcd;" horiz-adv-x="253" 
d="M81 0v693h91v-693h-91zM81 740l73 125h99l-94 -125h-78z" />
    <glyph glyph-name="Icircumflex" unicode="&#xce;" horiz-adv-x="253" 
d="M81 0v693h91v-693h-91zM-9 740l99 124h72l99 -124h-69l-67 60l-65 -60h-69z" />
    <glyph glyph-name="Idieresis" unicode="&#xcf;" horiz-adv-x="253" 
d="M160 746v89h86v-89h-86zM6 746v89h86v-89h-86zM81 0v693h91v-693h-91z" />
    <glyph glyph-name="Igrave" unicode="&#xcc;" horiz-adv-x="253" 
d="M81 0v693h91v-693h-91zM99 740l-88 125h99l67 -125h-78z" />
    <glyph glyph-name="Oacute" unicode="&#xd3;" horiz-adv-x="687" 
d="M342 -12c-189 0 -304 124 -304 349v20c0 215 115 348 308 348c188 0 303 -124 303 -349v-20c0 -215 -115 -348 -307 -348zM345 63c140 0 206 112 206 258v34c0 161 -55 274 -210 275c-140 0 -205 -111 -205 -257v-34c0 -161 55 -276 209 -276zM298 740l73 125h99
l-94 -125h-78z" />
    <glyph glyph-name="Ocircumflex" unicode="&#xd4;" horiz-adv-x="687" 
d="M342 -12c-189 0 -304 124 -304 349v20c0 215 115 348 308 348c188 0 303 -124 303 -349v-20c0 -215 -115 -348 -307 -348zM345 63c140 0 206 112 206 258v34c0 161 -55 274 -210 275c-140 0 -205 -111 -205 -257v-34c0 -161 55 -276 209 -276zM208 740l99 124h72l99 -124
h-69l-67 60l-65 -60h-69z" />
    <glyph glyph-name="Ograve" unicode="&#xd2;" horiz-adv-x="687" 
d="M342 -12c-189 0 -304 124 -304 349v20c0 215 115 348 308 348c188 0 303 -124 303 -349v-20c0 -215 -115 -348 -307 -348zM345 63c140 0 206 112 206 258v34c0 161 -55 274 -210 275c-140 0 -205 -111 -205 -257v-34c0 -161 55 -276 209 -276zM316 740l-88 125h99
l67 -125h-78z" />
    <glyph glyph-name="Uacute" unicode="&#xda;" horiz-adv-x="655" 
d="M331 -13c-165 0 -258 82 -258 254v452h91v-446c0 -145 60 -188 171 -188c110 0 163 42 163 189v445h84v-449c0 -179 -84 -257 -251 -257zM286 740l73 125h99l-94 -125h-78z" />
    <glyph glyph-name="Ucircumflex" unicode="&#xdb;" horiz-adv-x="655" 
d="M331 -13c-165 0 -258 82 -258 254v452h91v-446c0 -145 60 -188 171 -188c110 0 163 42 163 189v445h84v-449c0 -179 -84 -257 -251 -257zM196 740l99 124h72l99 -124h-69l-67 60l-65 -60h-69z" />
    <glyph glyph-name="Ugrave" unicode="&#xd9;" horiz-adv-x="655" 
d="M331 -13c-165 0 -258 82 -258 254v452h91v-446c0 -145 60 -188 171 -188c110 0 163 42 163 189v445h84v-449c0 -179 -84 -257 -251 -257zM304 740l-88 125h99l67 -125h-78z" />
    <glyph glyph-name="dotlessi" unicode="&#x131;" horiz-adv-x="220" 
d="M66 0v513h88v-513h-88z" />
    <glyph glyph-name="circumflex" unicode="&#x2c6;" 
d="M107 587l102 144h76l102 -144h-70l-71 78l-69 -78h-70z" />
    <glyph glyph-name="tilde" unicode="&#x2dc;" 
d="M95 604c8 76 53 108 96 108s78 -35 106 -35c19 0 31 12 36 37h60c-8 -76 -53 -108 -96 -108s-78 35 -106 35c-19 0 -31 -12 -36 -37h-60z" />
    <glyph glyph-name="macron" unicode="&#xaf;" 
d="M128 620v73h238v-73h-238z" />
    <glyph glyph-name="breve" unicode="&#x2d8;" 
d="M247 593c-76 0 -128 52 -132 126h67c6 -37 25 -60 65 -60s59 23 65 60h67c-3 -74 -56 -126 -132 -126z" />
    <glyph glyph-name="dotaccent" unicode="&#x2d9;" 
d="M202 615v91h90v-91h-90z" />
    <glyph glyph-name="ring" unicode="&#x2da;" 
d="M247 576c-55 0 -96 42 -96 92s41 92 96 92s96 -42 96 -92s-41 -92 -96 -92zM247 619c29 0 48 19 48 49c0 29 -19 49 -48 49s-48 -20 -48 -49c0 -30 19 -49 48 -49z" />
    <glyph glyph-name="cedilla" unicode="&#xb8;" 
d="M203 -217v52c73 6 102 18 102 41c0 24 -26 31 -81 31v93h57v-48c60 -3 96 -26 96 -70c0 -59 -44 -90 -174 -99z" />
    <glyph glyph-name="hungarumlaut" unicode="&#x2dd;" 
d="M115 587l48 145h95l-69 -145h-74zM273 587l47 145h95l-69 -145h-73z" />
    <glyph glyph-name="ogonek" unicode="&#x2db;" 
d="M255 -200c-68 0 -107 33 -107 85c0 56 50 96 86 115h68c-42 -33 -76 -69 -76 -104c0 -30 23 -36 52 -36c13 0 26 2 33 4v-54c-14 -5 -31 -10 -56 -10z" />
    <glyph glyph-name="caron" unicode="&#x2c7;" 
d="M209 587l-102 144h70l71 -78l69 78h70l-102 -144h-76z" />
    <glyph glyph-name="space_uni0326" horiz-adv-x="488" 
d="M182 -182l12 140h99l-46 -140h-65z" />
    <glyph glyph-name="caron.alt" horiz-adv-x="488" 
d="M279 576h-63l10 163h86z" />
    <glyph glyph-name="space_uni0326.alt" horiz-adv-x="488" 
d="M300 746l-12 -140h-99l46 140h65z" />
    <glyph glyph-name="acute.pl" 
d="M245 587l46 145h96l-71 -145h-71z" />
    <glyph glyph-name="grave.uc" 
d="M211 740l-88 125h99l67 -125h-78z" />
    <glyph glyph-name="dieresis.uc" 
d="M291 746v89h86v-89h-86zM117 746v89h86v-89h-86z" />
    <glyph glyph-name="macron.uc" 
d="M128 748v73h238v-73h-238z" />
    <glyph glyph-name="acute.uc" 
d="M205 740l73 125h99l-94 -125h-78z" />
    <glyph glyph-name="circumflex.uc" 
d="M112 740l99 124h72l99 -124h-69l-67 60l-65 -60h-69z" />
    <glyph glyph-name="caron.uc" 
d="M382 864l-99 -124h-72l-99 124h69l67 -60l65 60h69z" />
    <glyph glyph-name="breve.uc" 
d="M247 738c-76 0 -128 52 -132 126h67c6 -37 25 -60 65 -60s59 23 65 60h67c-3 -74 -56 -126 -132 -126z" />
    <glyph glyph-name="dotaccent.uc" 
d="M202 746v91h90v-91h-90z" />
    <glyph glyph-name="ring.uc" 
d="M247 729c-55 0 -96 42 -96 92s41 92 96 92s96 -42 96 -92s-41 -92 -96 -92zM247 772c29 0 48 19 48 49c0 29 -19 49 -48 49s-48 -20 -48 -49c0 -30 19 -49 48 -49z" />
    <glyph glyph-name="tilde.uc" 
d="M95 745c8 74 53 104 96 104s78 -31 106 -31c19 0 31 10 36 33h60c-8 -74 -53 -104 -96 -104s-78 31 -106 31c-19 0 -31 -10 -36 -33h-60z" />
    <glyph glyph-name="hungarumlaut.uc" 
d="M115 740l39 125h95l-60 -125h-74zM273 740l38 125h95l-60 -125h-73z" />
    <glyph glyph-name="acute.ucpl" 
d="M238 740l39 125h96l-64 -125h-71z" />
    <glyph glyph-name="Dcroat" unicode="&#x110;" horiz-adv-x="651" 
d="M7 309v77h71v307h209c210 0 326 -107 326 -327v-20c0 -216 -100 -346 -324 -346h-211v309h-71zM169 78h122c155 0 224 76 224 254v34c0 188 -86 249 -236 249h-110v-229h196v-77h-196v-231z" />
    <glyph glyph-name="Eng" unicode="&#x14a;" horiz-adv-x="667" 
d="M418 -177c-49 0 -80 8 -111 23v68c26 -8 59 -15 97 -15c60 0 96 28 101 84l-341 585h-3v-568h-83v693h107l318 -539h3v539h83v-700c0 -96 -50 -170 -171 -170z" />
    <glyph glyph-name="IJ" unicode="&#x132;" horiz-adv-x="624" 
d="M81 0v693h91v-693h-91zM248 11l-1 75c28 -9 63 -15 106 -15c76 0 106 41 106 112v510h92v-513c0 -104 -56 -187 -190 -187c-48 0 -81 6 -113 18z" />
    <glyph glyph-name="uni0237" unicode="&#x237;" horiz-adv-x="220" 
d="M12 -199c-36 0 -58 6 -78 17v61c18 -3 38 -6 55 -6c48 0 77 23 77 77v563h88v-568c0 -83 -42 -144 -142 -144z" />
    <glyph glyph-name="dcroat" unicode="&#x111;" horiz-adv-x="544" 
d="M247 588v61h146v90h88v-90h64v-61h-64v-588h-74l-9 41h-5c-30 -30 -79 -51 -147 -51c-99 0 -212 61 -212 250v14c0 188 96 269 228 269c62 0 104 -16 131 -32v97h-146zM274 62c57 0 97 23 119 41v314c-22 18 -69 31 -120 31c-93 0 -148 -48 -148 -182v-22
c0 -139 60 -182 149 -182z" />
    <glyph glyph-name="eng" unicode="&#x14b;" horiz-adv-x="534" 
d="M332 -199c-36 0 -58 6 -78 17v61c18 -3 38 -6 55 -6c48 0 77 23 77 77v413c0 59 -19 84 -100 84c-45 0 -98 -17 -135 -34v-413h-88v513h84v-44h5c43 30 110 54 173 54c101 0 149 -42 149 -141v-437c0 -83 -42 -144 -142 -144z" />
    <glyph glyph-name="ij" unicode="&#x133;" horiz-adv-x="440" 
d="M66 0v513h88v-513h-88zM65 615v91h90v-91h-90zM232 -199c-36 0 -58 6 -78 17v61c18 -3 38 -6 55 -6c48 0 77 23 77 77v563h88v-568c0 -83 -42 -144 -142 -144zM285 615v91h90v-91h-90z" />
    <glyph glyph-name="Abreve" unicode="&#x102;" horiz-adv-x="605" 
d="M7 0l252 693h89l250 -693h-95l-70 195h-271l-69 -195h-86zM295 572l-106 -300h216l-107 300h-3zM302 738c-76 0 -128 52 -132 126h67c6 -37 25 -60 65 -60s59 23 65 60h67c-3 -74 -56 -126 -132 -126z" />
    <glyph glyph-name="Amacron" unicode="&#x100;" horiz-adv-x="605" 
d="M7 0l252 693h89l250 -693h-95l-70 195h-271l-69 -195h-86zM295 572l-106 -300h216l-107 300h-3zM183 748v73h238v-73h-238z" />
    <glyph glyph-name="Aogonek" unicode="&#x104;" horiz-adv-x="605" 
d="M544 -200c-68 0 -107 33 -107 85c0 48 38 94 66 115l-70 195h-271l-69 -195h-86l252 693h89l249 -690c-48 -34 -82 -72 -82 -107c0 -30 23 -36 52 -36c13 0 26 2 33 4v-54c-14 -5 -31 -10 -56 -10zM295 572l-106 -300h216l-107 300h-3z" />
    <glyph glyph-name="Aringacute" unicode="&#x1fa;" horiz-adv-x="605" 
d="M7 0l252 693h89l250 -693h-95l-70 195h-271l-69 -195h-86zM295 572l-106 -300h216l-107 300h-3zM302 729c-55 0 -96 42 -96 92s41 92 96 92s96 -42 96 -92s-41 -92 -96 -92zM302 772c29 0 48 19 48 49c0 29 -19 49 -48 49s-48 -20 -48 -49c0 -30 19 -49 48 -49zM260 936
l73 125h99l-94 -125h-78z" />
    <glyph glyph-name="AEacute" unicode="&#x1fc;" horiz-adv-x="893" 
d="M0 0l375 693h463v-77h-322v-220h248v-77h-248v-242h325v-77h-416v200h-228l-106 -200h-91zM421 622l-183 -345h187v345h-4zM553 740l73 125h99l-94 -125h-78z" />
    <glyph glyph-name="Cacute" unicode="&#x106;" horiz-adv-x="565" 
d="M342 -12c-186 0 -304 114 -304 349v24c0 250 143 344 318 344c73 0 128 -15 171 -38v-76c-58 22 -109 36 -177 36c-124 0 -214 -72 -214 -251v-38c0 -171 63 -272 218 -272c84 0 137 23 181 44v-77c-49 -28 -114 -45 -193 -45zM289 740l73 125h99l-94 -125h-78z" />
    <glyph glyph-name="Ccaron" unicode="&#x10c;" horiz-adv-x="565" 
d="M342 -12c-186 0 -304 114 -304 349v24c0 250 143 344 318 344c73 0 128 -15 171 -38v-76c-58 22 -109 36 -177 36c-124 0 -214 -72 -214 -251v-38c0 -171 63 -272 218 -272c84 0 137 23 181 44v-77c-49 -28 -114 -45 -193 -45zM469 864l-99 -124h-72l-99 124h69l67 -60
l65 60h69z" />
    <glyph glyph-name="Ccircumflex" unicode="&#x108;" horiz-adv-x="565" 
d="M342 -12c-186 0 -304 114 -304 349v24c0 250 143 344 318 344c73 0 128 -15 171 -38v-76c-58 22 -109 36 -177 36c-124 0 -214 -72 -214 -251v-38c0 -171 63 -272 218 -272c84 0 137 23 181 44v-77c-49 -28 -114 -45 -193 -45zM199 740l99 124h72l99 -124h-69l-67 60
l-65 -60h-69z" />
    <glyph glyph-name="Cdotaccent" unicode="&#x10a;" horiz-adv-x="565" 
d="M342 -12c-186 0 -304 114 -304 349v24c0 250 143 344 318 344c73 0 128 -15 171 -38v-76c-58 22 -109 36 -177 36c-124 0 -214 -72 -214 -251v-38c0 -171 63 -272 218 -272c84 0 137 23 181 44v-77c-49 -28 -114 -45 -193 -45zM289 746v91h90v-91h-90z" />
    <glyph glyph-name="Cacute.pl" horiz-adv-x="565" 
d="M342 -12c-186 0 -304 114 -304 349v24c0 250 143 344 318 344c73 0 128 -15 171 -38v-76c-58 22 -109 36 -177 36c-124 0 -214 -72 -214 -251v-38c0 -171 63 -272 218 -272c84 0 137 23 181 44v-77c-49 -28 -114 -45 -193 -45zM300 740l39 125h96l-64 -125h-71z" />
    <glyph glyph-name="Dcaron" unicode="&#x10e;" horiz-adv-x="651" 
d="M78 0v693h209c210 0 326 -107 326 -327v-20c0 -216 -100 -346 -324 -346h-211zM169 78h122c155 0 224 76 224 254v34c0 188 -86 249 -236 249h-110v-537zM445 864l-99 -124h-72l-99 124h69l67 -60l65 60h69z" />
    <glyph glyph-name="Ebreve" unicode="&#x114;" horiz-adv-x="547" 
d="M78 0v693h413v-77h-322v-220h248v-77h-248v-242h325v-77h-416zM289 738c-76 0 -128 52 -132 126h67c6 -37 25 -60 65 -60s59 23 65 60h67c-3 -74 -56 -126 -132 -126z" />
    <glyph glyph-name="Ecaron" unicode="&#x11a;" horiz-adv-x="547" 
d="M78 0v693h413v-77h-322v-220h248v-77h-248v-242h325v-77h-416zM428 864l-99 -124h-72l-99 124h69l67 -60l65 60h69z" />
    <glyph glyph-name="Edotaccent" unicode="&#x116;" horiz-adv-x="547" 
d="M78 0v693h413v-77h-322v-220h248v-77h-248v-242h325v-77h-416zM248 746v91h90v-91h-90z" />
    <glyph glyph-name="Emacron" unicode="&#x112;" horiz-adv-x="547" 
d="M78 0v693h413v-77h-322v-220h248v-77h-248v-242h325v-77h-416zM170 748v73h238v-73h-238z" />
    <glyph glyph-name="Eogonek" unicode="&#x118;" horiz-adv-x="547" 
d="M78 0v693h413v-77h-322v-220h248v-77h-248v-242h325v-77h-52c-42 -33 -76 -69 -76 -104c0 -30 23 -36 52 -36c13 0 26 2 33 4v-54c-14 -5 -31 -10 -56 -10c-68 0 -107 33 -107 85s44 93 78 115h-288z" />
    <glyph glyph-name="Gbreve" unicode="&#x11e;" horiz-adv-x="633" 
d="M360 -12c-194 0 -322 103 -322 343v20c0 265 157 354 330 354c86 0 141 -20 182 -42v-78c-42 19 -95 42 -189 42c-170 0 -225 -126 -225 -262v-32c0 -153 44 -268 227 -268c46 0 93 8 123 19v180h-144v76h235v-312c-53 -21 -127 -40 -217 -40zM344 738
c-76 0 -128 52 -132 126h67c6 -37 25 -60 65 -60s59 23 65 60h67c-3 -74 -56 -126 -132 -126z" />
    <glyph glyph-name="Gcircumflex" unicode="&#x11c;" horiz-adv-x="633" 
d="M360 -12c-194 0 -322 103 -322 343v20c0 265 157 354 330 354c86 0 141 -20 182 -42v-78c-42 19 -95 42 -189 42c-170 0 -225 -126 -225 -262v-32c0 -153 44 -268 227 -268c46 0 93 8 123 19v180h-144v76h235v-312c-53 -21 -127 -40 -217 -40zM209 740l99 124h72l99 -124
h-69l-67 60l-65 -60h-69z" />
    <glyph glyph-name="Gcommaaccent" unicode="&#x122;" horiz-adv-x="633" 
d="M360 -12c-194 0 -322 103 -322 343v20c0 265 157 354 330 354c86 0 141 -20 182 -42v-78c-42 19 -95 42 -189 42c-170 0 -225 -126 -225 -262v-32c0 -153 44 -268 227 -268c46 0 93 8 123 19v180h-144v76h235v-312c-53 -21 -127 -40 -217 -40zM288 -182l12 140h99
l-46 -140h-65z" />
    <glyph glyph-name="Gdotaccent" unicode="&#x120;" horiz-adv-x="633" 
d="M360 -12c-194 0 -322 103 -322 343v20c0 265 157 354 330 354c86 0 141 -20 182 -42v-78c-42 19 -95 42 -189 42c-170 0 -225 -126 -225 -262v-32c0 -153 44 -268 227 -268c46 0 93 8 123 19v180h-144v76h235v-312c-53 -21 -127 -40 -217 -40zM299 746v91h90v-91h-90z
" />
    <glyph glyph-name="Hbar" unicode="&#x126;" horiz-adv-x="671" 
d="M20 502v65h58v126h91v-126h333v126h91v-126h58v-65h-58v-502h-91v320h-333v-320h-91v502h-58zM169 397h333v105h-333v-105z" />
    <glyph glyph-name="Hcircumflex" unicode="&#x124;" horiz-adv-x="671" 
d="M78 0v693h91v-296h333v296h91v-693h-91v320h-333v-320h-91zM200 740l99 124h72l99 -124h-69l-67 60l-65 -60h-69z" />
    <glyph glyph-name="Idotaccent" unicode="&#x130;" horiz-adv-x="253" 
d="M81 0v693h91v-693h-91zM81 746v91h90v-91h-90z" />
    <glyph glyph-name="Ibreve" unicode="&#x12c;" horiz-adv-x="253" 
d="M81 0v693h91v-693h-91zM126 738c-76 0 -128 52 -132 126h67c6 -37 25 -60 65 -60s59 23 65 60h67c-3 -74 -56 -126 -132 -126z" />
    <glyph glyph-name="Imacron" unicode="&#x12a;" horiz-adv-x="253" 
d="M31 748v73h190v-73h-190zM81 0v693h91v-693h-91z" />
    <glyph glyph-name="Iogonek" unicode="&#x12e;" horiz-adv-x="253" 
d="M17 -114c0 47 32 87 64 111v696h91v-691c-45 -34 -77 -70 -77 -105c0 -29 21 -37 50 -37c13 0 26 2 33 4v-54c-14 -5 -31 -10 -56 -10c-68 0 -105 34 -105 86z" />
    <glyph glyph-name="Itilde" unicode="&#x128;" horiz-adv-x="253" 
d="M81 0v693h91v-693h-91zM-23 745c8 74 53 104 96 104s78 -31 106 -31c19 0 31 10 36 33h60c-8 -74 -53 -104 -96 -104s-78 31 -106 31c-19 0 -31 -10 -36 -33h-60z" />
    <glyph glyph-name="Jcircumflex" unicode="&#x134;" horiz-adv-x="422" 
d="M159 -7c-58 0 -95 9 -133 27v73c31 -11 72 -22 125 -22c76 0 106 41 106 112v510h92v-513c0 -104 -56 -187 -190 -187zM167 740l99 124h72l99 -124h-69l-67 60l-65 -60h-69z" />
    <glyph glyph-name="Kcommaaccent" unicode="&#x136;" horiz-adv-x="586" 
d="M466 0l-269 354l266 339h97l-260 -329l274 -364h-108zM78 0v693h91v-693h-91zM248 -182l12 140h99l-46 -140h-65z" />
    <glyph glyph-name="Lacute" unicode="&#x139;" horiz-adv-x="498" 
d="M78 0v693h91v-616h306v-77h-397zM80 740l73 125h99l-94 -125h-78z" />
    <glyph glyph-name="Lcaron" unicode="&#x13d;" horiz-adv-x="498" 
d="M78 0v693h91v-616h306v-77h-397zM369 514h-63l11 179h86z" />
    <glyph glyph-name="Lcommaaccent" unicode="&#x13b;" horiz-adv-x="498" 
d="M78 0v693h91v-616h306v-77h-397zM221 -182l12 140h99l-46 -140h-65z" />
    <glyph glyph-name="Ldot" unicode="&#x13f;" horiz-adv-x="498" 
d="M78 0v693h91v-616h306v-77h-397zM353 315v101h100v-101h-100z" />
    <glyph glyph-name="Nacute" unicode="&#x143;" horiz-adv-x="667" 
d="M78 0v693h107l318 -539h3v539h83v-693h-94l-331 568h-3v-568h-83zM307 740l73 125h99l-94 -125h-78z" />
    <glyph glyph-name="Ncaron" unicode="&#x147;" horiz-adv-x="667" 
d="M78 0v693h107l318 -539h3v539h83v-693h-94l-331 568h-3v-568h-83zM487 864l-99 -124h-72l-99 124h69l67 -60l65 60h69z" />
    <glyph glyph-name="Ncommaaccent" unicode="&#x145;" horiz-adv-x="667" 
d="M78 0v693h107l318 -539h3v539h83v-693h-94l-331 568h-3v-568h-83zM273 -182l12 140h99l-46 -140h-65z" />
    <glyph glyph-name="Nacute.pl" horiz-adv-x="667" 
d="M78 0v693h107l318 -539h3v539h83v-693h-94l-331 568h-3v-568h-83zM318 740l39 125h96l-64 -125h-71z" />
    <glyph glyph-name="Obreve" unicode="&#x14e;" horiz-adv-x="687" 
d="M342 -12c-189 0 -304 124 -304 349v20c0 215 115 348 308 348c188 0 303 -124 303 -349v-20c0 -215 -115 -348 -307 -348zM345 63c140 0 206 112 206 258v34c0 161 -55 274 -210 275c-140 0 -205 -111 -205 -257v-34c0 -161 55 -276 209 -276zM343 738
c-76 0 -128 52 -132 126h67c6 -37 25 -60 65 -60s59 23 65 60h67c-3 -74 -56 -126 -132 -126z" />
    <glyph glyph-name="Ohungarumlaut" unicode="&#x150;" horiz-adv-x="687" 
d="M342 -12c-189 0 -304 124 -304 349v20c0 215 115 348 308 348c188 0 303 -124 303 -349v-20c0 -215 -115 -348 -307 -348zM345 63c140 0 206 112 206 258v34c0 161 -55 274 -210 275c-140 0 -205 -111 -205 -257v-34c0 -161 55 -276 209 -276zM224 740l39 125h95
l-60 -125h-74zM382 740l38 125h95l-60 -125h-73z" />
    <glyph glyph-name="Omacron" unicode="&#x14c;" horiz-adv-x="687" 
d="M342 -12c-189 0 -304 124 -304 349v20c0 215 115 348 308 348c188 0 303 -124 303 -349v-20c0 -215 -115 -348 -307 -348zM345 63c140 0 206 112 206 258v34c0 161 -55 274 -210 275c-140 0 -205 -111 -205 -257v-34c0 -161 55 -276 209 -276zM224 748v73h238v-73h-238z
" />
    <glyph glyph-name="Oacute.pl" horiz-adv-x="687" 
d="M342 -12c-189 0 -304 124 -304 349v20c0 215 115 348 308 348c188 0 303 -124 303 -349v-20c0 -215 -115 -348 -307 -348zM345 63c140 0 206 112 206 258v34c0 161 -55 274 -210 275c-140 0 -205 -111 -205 -257v-34c0 -161 55 -276 209 -276zM309 740l39 125h96
l-64 -125h-71z" />
    <glyph glyph-name="Oslashacute" unicode="&#x1fe;" horiz-adv-x="687" 
d="M342 -12c-81 0 -149 23 -200 68l-46 -56h-88l89 108c-38 57 -59 134 -59 229v20c0 215 115 348 308 348c76 0 142 -22 192 -63l42 51h87l-83 -101c42 -58 65 -137 65 -236v-20c0 -215 -115 -348 -307 -348zM345 63c140 0 206 112 206 258v34c0 63 -8 119 -28 163
l-328 -398c33 -36 81 -57 150 -57zM136 339c0 -60 6 -113 23 -156l325 394c-33 33 -79 52 -143 53c-140 1 -205 -111 -205 -257v-34zM293 740l73 125h99l-94 -125h-78z" />
    <glyph glyph-name="Racute" unicode="&#x154;" horiz-adv-x="578" 
d="M78 0v693h204c152 0 232 -67 232 -197c0 -99 -50 -152 -131 -181v-5l181 -310h-104l-167 293h-124v-293h-91zM169 365h107c101 0 141 41 141 129c0 87 -42 122 -142 122h-106v-251zM239 740l73 125h99l-94 -125h-78z" />
    <glyph glyph-name="Rcaron" unicode="&#x158;" horiz-adv-x="578" 
d="M78 0v693h204c152 0 232 -67 232 -197c0 -99 -50 -152 -131 -181v-5l181 -310h-104l-167 293h-124v-293h-91zM169 365h107c101 0 141 41 141 129c0 87 -42 122 -142 122h-106v-251zM419 864l-99 -124h-72l-99 124h69l67 -60l65 60h69z" />
    <glyph glyph-name="Rcommaaccent" unicode="&#x156;" horiz-adv-x="578" 
d="M78 0v693h204c152 0 232 -67 232 -197c0 -99 -50 -152 -131 -181v-5l181 -310h-104l-167 293h-124v-293h-91zM169 365h107c101 0 141 41 141 129c0 87 -42 122 -142 122h-106v-251zM249 -182l12 140h99l-46 -140h-65z" />
    <glyph glyph-name="Sacute" unicode="&#x15a;" horiz-adv-x="497" 
d="M227 -13c-87 0 -152 20 -199 46v77c54 -27 122 -45 194 -45c101 0 146 47 146 119c0 66 -29 94 -110 121l-72 24c-93 31 -149 82 -149 189c0 109 74 187 219 187c84 0 131 -19 170 -38v-77c-42 19 -97 37 -173 37c-79 0 -125 -37 -125 -101c0 -63 22 -91 95 -115l72 -24
c102 -34 166 -79 166 -196c0 -122 -71 -204 -234 -204zM203 740l73 125h99l-94 -125h-78z" />
    <glyph glyph-name="Scedilla" unicode="&#x15e;" horiz-adv-x="497" 
d="M162 -217v52c73 6 102 18 102 41c0 24 -26 31 -81 31v82c-66 6 -117 22 -155 44v77c54 -27 122 -45 194 -45c101 0 146 47 146 119c0 66 -29 94 -110 121l-72 24c-93 31 -149 82 -149 189c0 109 74 187 219 187c84 0 131 -19 170 -38v-77c-42 19 -97 37 -173 37
c-79 0 -125 -37 -125 -101c0 -63 22 -91 95 -115l72 -24c102 -34 166 -79 166 -196c0 -119 -67 -199 -221 -204v-35c60 -3 96 -26 96 -70c0 -59 -44 -90 -174 -99z" />
    <glyph glyph-name="Scircumflex" unicode="&#x15c;" horiz-adv-x="497" 
d="M227 -13c-87 0 -152 20 -199 46v77c54 -27 122 -45 194 -45c101 0 146 47 146 119c0 66 -29 94 -110 121l-72 24c-93 31 -149 82 -149 189c0 109 74 187 219 187c84 0 131 -19 170 -38v-77c-42 19 -97 37 -173 37c-79 0 -125 -37 -125 -101c0 -63 22 -91 95 -115l72 -24
c102 -34 166 -79 166 -196c0 -122 -71 -204 -234 -204zM113 740l99 124h72l99 -124h-69l-67 60l-65 -60h-69z" />
    <glyph glyph-name="Scommaaccent" unicode="&#x218;" horiz-adv-x="497" 
d="M227 -13c-87 0 -152 20 -199 46v77c54 -27 122 -45 194 -45c101 0 146 47 146 119c0 66 -29 94 -110 121l-72 24c-93 31 -149 82 -149 189c0 109 74 187 219 187c84 0 131 -19 170 -38v-77c-42 19 -97 37 -173 37c-79 0 -125 -37 -125 -101c0 -63 22 -91 95 -115l72 -24
c102 -34 166 -79 166 -196c0 -122 -71 -204 -234 -204zM177 -182l12 140h99l-46 -140h-65z" />
    <glyph glyph-name="Sacute.pl" horiz-adv-x="497" 
d="M227 -13c-87 0 -152 20 -199 46v77c54 -27 122 -45 194 -45c101 0 146 47 146 119c0 66 -29 94 -110 121l-72 24c-93 31 -149 82 -149 189c0 109 74 187 219 187c84 0 131 -19 170 -38v-77c-42 19 -97 37 -173 37c-79 0 -125 -37 -125 -101c0 -63 22 -91 95 -115l72 -24
c102 -34 166 -79 166 -196c0 -122 -71 -204 -234 -204zM214 740l39 125h96l-64 -125h-71z" />
    <glyph glyph-name="Tcaron" unicode="&#x164;" horiz-adv-x="537" 
d="M223 0v616h-205v77h501v-77h-205v-616h-91zM403 864l-99 -124h-72l-99 124h69l67 -60l65 60h69z" />
    <glyph glyph-name="Tcommaaccent" unicode="&#x162;" horiz-adv-x="537" 
d="M223 0v616h-205v77h501v-77h-205v-616h-91zM208 -182l12 140h99l-46 -140h-65z" />
    <glyph glyph-name="Tbar" unicode="&#x166;" horiz-adv-x="537" 
d="M84 357v63h139v196h-205v77h501v-77h-205v-196h139v-63h-139v-357h-91v357h-139z" />
    <glyph glyph-name="Ubreve" unicode="&#x16c;" horiz-adv-x="655" 
d="M331 -13c-165 0 -258 82 -258 254v452h91v-446c0 -145 60 -188 171 -188c110 0 163 42 163 189v445h84v-449c0 -179 -84 -257 -251 -257zM331 738c-76 0 -128 52 -132 126h67c6 -37 25 -60 65 -60s59 23 65 60h67c-3 -74 -56 -126 -132 -126z" />
    <glyph glyph-name="Uhungarumlaut" unicode="&#x170;" horiz-adv-x="655" 
d="M331 -13c-165 0 -258 82 -258 254v452h91v-446c0 -145 60 -188 171 -188c110 0 163 42 163 189v445h84v-449c0 -179 -84 -257 -251 -257zM212 740l39 125h95l-60 -125h-74zM370 740l38 125h95l-60 -125h-73z" />
    <glyph glyph-name="Umacron" unicode="&#x16a;" horiz-adv-x="655" 
d="M331 -13c-165 0 -258 82 -258 254v452h91v-446c0 -145 60 -188 171 -188c110 0 163 42 163 189v445h84v-449c0 -179 -84 -257 -251 -257zM212 748v73h238v-73h-238z" />
    <glyph glyph-name="Uogonek" unicode="&#x172;" horiz-adv-x="655" 
d="M366 -200c-68 0 -107 33 -107 85c0 46 33 81 64 102c-160 3 -250 84 -250 254v452h91v-446c0 -145 60 -188 171 -188c110 0 163 42 163 189v445h84v-449c0 -87 -19 -148 -56 -188c-39 -42 -75 -50 -117 -71c-44 -22 -72 -53 -72 -89c0 -30 23 -36 52 -36c13 0 26 2 33 4
v-54c-14 -5 -31 -10 -56 -10z" />
    <glyph glyph-name="Uring" unicode="&#x16e;" horiz-adv-x="655" 
d="M331 -13c-165 0 -258 82 -258 254v452h91v-446c0 -145 60 -188 171 -188c110 0 163 42 163 189v445h84v-449c0 -179 -84 -257 -251 -257zM331 709c-55 0 -96 42 -96 92s41 92 96 92s96 -42 96 -92s-41 -92 -96 -92zM331 752c29 0 48 19 48 49c0 29 -19 49 -48 49
s-48 -20 -48 -49c0 -30 19 -49 48 -49z" />
    <glyph glyph-name="Utilde" unicode="&#x168;" horiz-adv-x="655" 
d="M331 -13c-165 0 -258 82 -258 254v452h91v-446c0 -145 60 -188 171 -188c110 0 163 42 163 189v445h84v-449c0 -179 -84 -257 -251 -257zM182 745c8 74 53 104 96 104s78 -31 106 -31c19 0 31 10 36 33h60c-8 -74 -53 -104 -96 -104s-78 31 -106 31
c-19 0 -31 -10 -36 -33h-60z" />
    <glyph glyph-name="Wacute" unicode="&#x1e82;" horiz-adv-x="861" 
d="M190 0l-174 693h92l131 -550h3l157 550h75l154 -550h3l130 550h84l-173 -693h-88l-149 540h-3l-154 -540h-88zM391 740l73 125h99l-94 -125h-78z" />
    <glyph glyph-name="Wcircumflex" unicode="&#x174;" horiz-adv-x="861" 
d="M190 0l-174 693h92l131 -550h3l157 550h75l154 -550h3l130 550h84l-173 -693h-88l-149 540h-3l-154 -540h-88zM301 740l99 124h72l99 -124h-69l-67 60l-65 -60h-69z" />
    <glyph glyph-name="Wdieresis" unicode="&#x1e84;" horiz-adv-x="861" 
d="M190 0l-174 693h92l131 -550h3l157 550h75l154 -550h3l130 550h84l-173 -693h-88l-149 540h-3l-154 -540h-88zM480 746v89h86v-89h-86zM306 746v89h86v-89h-86z" />
    <glyph glyph-name="Wgrave" unicode="&#x1e80;" horiz-adv-x="861" 
d="M190 0l-174 693h92l131 -550h3l157 550h75l154 -550h3l130 550h84l-173 -693h-88l-149 540h-3l-154 -540h-88zM409 740l-88 125h99l67 -125h-78z" />
    <glyph glyph-name="Ycircumflex" unicode="&#x176;" horiz-adv-x="554" 
d="M232 0v268l-226 425h97l178 -339h3l175 339h89l-225 -425v-268h-91zM147 740l99 124h72l99 -124h-69l-67 60l-65 -60h-69z" />
    <glyph glyph-name="Ygrave" unicode="&#x1ef2;" horiz-adv-x="554" 
d="M232 0v268l-226 425h97l178 -339h3l175 339h89l-225 -425v-268h-91zM255 740l-88 125h99l67 -125h-78z" />
    <glyph glyph-name="Zacute" unicode="&#x179;" horiz-adv-x="535" 
d="M27 0v69l373 544v3h-346v77h456v-68l-374 -545v-3h361v-77h-470zM232 740l73 125h99l-94 -125h-78z" />
    <glyph glyph-name="Zdotaccent" unicode="&#x17b;" horiz-adv-x="535" 
d="M27 0v69l373 544v3h-346v77h456v-68l-374 -545v-3h361v-77h-470zM232 746v91h90v-91h-90z" />
    <glyph glyph-name="Zacute.pl" horiz-adv-x="535" 
d="M27 0v69l373 544v3h-346v77h456v-68l-374 -545v-3h361v-77h-470zM244 740l39 125h96l-64 -125h-71z" />
    <glyph glyph-name="abreve" unicode="&#x103;" horiz-adv-x="469" 
d="M189 -10c-92 0 -159 47 -159 146c0 89 58 137 155 149l136 17v48c0 78 -34 97 -126 97c-50 0 -91 -8 -122 -15v63c46 18 95 28 157 28c114 0 179 -48 179 -151v-372h-71l-9 43h-6c-25 -29 -66 -53 -134 -53zM212 58c44 0 87 15 109 35v142l-113 -12
c-58 -6 -87 -29 -87 -85c0 -54 36 -80 91 -80zM236 593c-76 0 -128 52 -132 126h67c6 -37 25 -60 65 -60s59 23 65 60h67c-3 -74 -56 -126 -132 -126z" />
    <glyph glyph-name="amacron" unicode="&#x101;" horiz-adv-x="469" 
d="M189 -10c-92 0 -159 47 -159 146c0 89 58 137 155 149l136 17v48c0 78 -34 97 -126 97c-50 0 -91 -8 -122 -15v63c46 18 95 28 157 28c114 0 179 -48 179 -151v-372h-71l-9 43h-6c-25 -29 -66 -53 -134 -53zM212 58c44 0 87 15 109 35v142l-113 -12
c-58 -6 -87 -29 -87 -85c0 -54 36 -80 91 -80zM115 620v73h238v-73h-238z" />
    <glyph glyph-name="aogonek" unicode="&#x105;" horiz-adv-x="469" 
d="M362 -200c-68 0 -107 33 -107 85c0 55 47 96 83 117l-9 41h-6c-25 -29 -66 -53 -134 -53c-92 0 -159 47 -159 146c0 89 58 137 155 149l136 17v48c0 78 -34 97 -126 97c-50 0 -91 -8 -122 -15v63c46 18 95 28 157 28c114 0 179 -48 179 -151v-372
c-42 -33 -76 -69 -76 -104c0 -30 23 -36 52 -36c13 0 26 2 33 4v-54c-14 -5 -31 -10 -56 -10zM212 58c44 0 87 15 109 35v142l-113 -12c-58 -6 -87 -29 -87 -85c0 -54 36 -80 91 -80z" />
    <glyph glyph-name="aringacute" unicode="&#x1fb;" horiz-adv-x="469" 
d="M189 -10c-92 0 -159 47 -159 146c0 89 58 137 155 149l136 17v48c0 78 -34 97 -126 97c-50 0 -91 -8 -122 -15v63c46 18 95 28 157 28c114 0 179 -48 179 -151v-372h-71l-9 43h-6c-25 -29 -66 -53 -134 -53zM212 58c44 0 87 15 109 35v142l-113 -12
c-58 -6 -87 -29 -87 -85c0 -54 36 -80 91 -80zM230 576c-55 0 -96 42 -96 92s41 92 96 92s96 -42 96 -92s-41 -92 -96 -92zM230 619c29 0 48 19 48 49c0 29 -19 49 -48 49s-48 -20 -48 -49c0 -30 19 -49 48 -49zM185 805l73 125h99l-94 -125h-78z" />
    <glyph glyph-name="aeacute" unicode="&#x1fd;" horiz-adv-x="786" 
d="M189 -10c-92 0 -159 47 -159 146c0 89 58 136 155 148l136 17v49c0 78 -34 97 -126 97c-50 0 -91 -8 -122 -15v63c46 18 95 28 157 28c80 0 132 -26 154 -79c39 53 97 79 163 79c141 0 208 -81 208 -242v-46h-343c5 -125 65 -169 168 -169c69 0 113 15 160 39v-65
c-31 -23 -89 -50 -174 -50c-88 0 -153 29 -193 82c-46 -49 -100 -82 -184 -82zM345 119c-15 34 -23 74 -24 119l-113 -14c-58 -6 -87 -30 -87 -86c0 -54 36 -80 91 -80c50 0 95 22 133 61zM543 452c-56 0 -122 -32 -130 -149h249c0 107 -41 149 -119 149zM361 587l86 145h99
l-107 -145h-78z" />
    <glyph glyph-name="cacute" unicode="&#x107;" horiz-adv-x="443" 
d="M270 -10c-146 0 -239 83 -239 255v17c0 181 109 261 244 261c67 0 106 -13 140 -34v-73c-46 19 -78 32 -146 32c-91 0 -147 -62 -147 -173v-27c0 -129 54 -183 158 -183c69 0 115 23 141 36v-70c-34 -22 -80 -41 -151 -41zM211 587l86 145h99l-107 -145h-78z" />
    <glyph glyph-name="ccaron" unicode="&#x10d;" horiz-adv-x="443" 
d="M270 -10c-146 0 -239 83 -239 255v17c0 181 109 261 244 261c67 0 106 -13 140 -34v-73c-46 19 -78 32 -146 32c-91 0 -147 -62 -147 -173v-27c0 -129 54 -183 158 -183c69 0 115 23 141 36v-70c-34 -22 -80 -41 -151 -41zM220 587l-102 144h70l71 -78l69 78h70
l-102 -144h-76z" />
    <glyph glyph-name="ccircumflex" unicode="&#x109;" horiz-adv-x="443" 
d="M270 -10c-146 0 -239 83 -239 255v17c0 181 109 261 244 261c67 0 106 -13 140 -34v-73c-46 19 -78 32 -146 32c-91 0 -147 -62 -147 -173v-27c0 -129 54 -183 158 -183c69 0 115 23 141 36v-70c-34 -22 -80 -41 -151 -41zM118 587l102 144h76l102 -144h-70l-71 78
l-69 -78h-70z" />
    <glyph glyph-name="cdotaccent" unicode="&#x10b;" horiz-adv-x="443" 
d="M270 -10c-146 0 -239 83 -239 255v17c0 181 109 261 244 261c67 0 106 -13 140 -34v-73c-46 19 -78 32 -146 32c-91 0 -147 -62 -147 -173v-27c0 -129 54 -183 158 -183c69 0 115 23 141 36v-70c-34 -22 -80 -41 -151 -41zM213 615v91h90v-91h-90z" />
    <glyph glyph-name="cacute.pl" horiz-adv-x="443" 
d="M270 -10c-146 0 -239 83 -239 255v17c0 181 109 261 244 261c67 0 106 -13 140 -34v-73c-46 19 -78 32 -146 32c-91 0 -147 -62 -147 -173v-27c0 -129 54 -183 158 -183c69 0 115 23 141 36v-70c-34 -22 -80 -41 -151 -41zM223 587l46 145h96l-71 -145h-71z" />
    <glyph glyph-name="dcaron" unicode="&#x10f;" horiz-adv-x="544" 
d="M246 -10c-99 0 -212 61 -212 250v14c0 188 96 269 228 269c62 0 104 -16 131 -32v248h88v-739h-74l-9 41h-5c-30 -30 -79 -51 -147 -51zM274 62c57 0 97 23 119 41v314c-22 18 -69 31 -120 31c-93 0 -148 -48 -148 -182v-22c0 -139 60 -182 149 -182zM590 576h-63l10 163
h86z" />
    <glyph glyph-name="ebreve" unicode="&#x115;" horiz-adv-x="496" 
d="M276 -10c-162 0 -245 100 -245 259v15c0 179 107 259 226 259c141 0 208 -81 208 -242v-50h-343c6 -122 66 -165 168 -165c69 0 113 15 160 39v-65c-31 -23 -89 -50 -174 -50zM253 452c-57 0 -123 -32 -131 -150h250c0 108 -41 150 -119 150zM257 593
c-76 0 -128 52 -132 126h67c6 -37 25 -60 65 -60s59 23 65 60h67c-3 -74 -56 -126 -132 -126z" />
    <glyph glyph-name="ecaron" unicode="&#x11b;" horiz-adv-x="496" 
d="M276 -10c-162 0 -245 100 -245 259v15c0 179 107 259 226 259c141 0 208 -81 208 -242v-50h-343c6 -122 66 -165 168 -165c69 0 113 15 160 39v-65c-31 -23 -89 -50 -174 -50zM253 452c-57 0 -123 -32 -131 -150h250c0 108 -41 150 -119 150zM219 587l-102 144h70l71 -78
l69 78h70l-102 -144h-76z" />
    <glyph glyph-name="edotaccent" unicode="&#x117;" horiz-adv-x="496" 
d="M276 -10c-162 0 -245 100 -245 259v15c0 179 107 259 226 259c141 0 208 -81 208 -242v-50h-343c6 -122 66 -165 168 -165c69 0 113 15 160 39v-65c-31 -23 -89 -50 -174 -50zM253 452c-57 0 -123 -32 -131 -150h250c0 108 -41 150 -119 150zM212 615v91h90v-91h-90z" />
    <glyph glyph-name="emacron" unicode="&#x113;" horiz-adv-x="496" 
d="M276 -10c-162 0 -245 100 -245 259v15c0 179 107 259 226 259c141 0 208 -81 208 -242v-50h-343c6 -122 66 -165 168 -165c69 0 113 15 160 39v-65c-31 -23 -89 -50 -174 -50zM253 452c-57 0 -123 -32 -131 -150h250c0 108 -41 150 -119 150zM138 620v73h238v-73h-238z
" />
    <glyph glyph-name="eogonek" unicode="&#x119;" horiz-adv-x="496" 
d="M291 -10h-15c-162 0 -245 100 -245 259v15c0 179 107 259 226 259c141 0 208 -81 208 -242v-50h-343c6 -122 66 -165 168 -165c69 0 113 15 160 39v-65c-20 -16 -50 -28 -79 -48c-39 -27 -71 -61 -71 -96c0 -30 23 -36 52 -36c13 0 26 2 33 4v-54c-14 -5 -31 -10 -56 -10
c-68 0 -107 33 -107 85c0 48 36 84 69 105zM253 452c-57 0 -123 -32 -131 -150h250c0 108 -41 150 -119 150z" />
    <glyph glyph-name="gbreve" unicode="&#x11f;" horiz-adv-x="503" 
d="M244 -199c-156 0 -232 51 -232 130c0 55 43 92 96 110v5c-30 11 -52 36 -52 71s18 69 59 99c-39 26 -64 68 -64 128v10c0 108 82 169 196 169c26 0 51 -3 74 -9h175v-67h-87c21 -23 32 -52 32 -89v-10c0 -111 -87 -165 -195 -165c-31 0 -60 4 -86 12
c-12 -11 -21 -27 -21 -43c0 -28 15 -44 48 -44h141c94 0 163 -35 163 -135c0 -94 -72 -172 -247 -172zM242 -127c116 0 157 34 157 86c0 46 -21 65 -87 65h-145c-35 -12 -62 -39 -62 -80c0 -47 41 -71 137 -71zM246 250c68 0 107 31 107 94v15c0 67 -42 97 -107 97
c-68 0 -107 -35 -107 -95v-15c0 -65 42 -96 107 -96zM260 593c-76 0 -128 52 -132 126h67c6 -37 25 -60 65 -60s59 23 65 60h67c-3 -74 -56 -126 -132 -126z" />
    <glyph glyph-name="gcircumflex" unicode="&#x11d;" horiz-adv-x="503" 
d="M244 -199c-156 0 -232 51 -232 130c0 55 43 92 96 110v5c-30 11 -52 36 -52 71s18 69 59 99c-39 26 -64 68 -64 128v10c0 108 82 169 196 169c26 0 51 -3 74 -9h175v-67h-87c21 -23 32 -52 32 -89v-10c0 -111 -87 -165 -195 -165c-31 0 -60 4 -86 12
c-12 -11 -21 -27 -21 -43c0 -28 15 -44 48 -44h141c94 0 163 -35 163 -135c0 -94 -72 -172 -247 -172zM242 -127c116 0 157 34 157 86c0 46 -21 65 -87 65h-145c-35 -12 -62 -39 -62 -80c0 -47 41 -71 137 -71zM246 250c68 0 107 31 107 94v15c0 67 -42 97 -107 97
c-68 0 -107 -35 -107 -95v-15c0 -65 42 -96 107 -96zM120 587l102 144h76l102 -144h-70l-71 78l-69 -78h-70z" />
    <glyph glyph-name="gcommaaccent" unicode="&#x123;" horiz-adv-x="503" 
d="M244 -199c-156 0 -232 51 -232 130c0 55 43 92 96 110v5c-30 11 -52 36 -52 71s18 69 59 99c-39 26 -64 68 -64 128v10c0 108 82 169 196 169c26 0 51 -3 74 -9h175v-67h-87c21 -23 32 -52 32 -89v-10c0 -111 -87 -165 -195 -165c-31 0 -60 4 -86 12
c-12 -11 -21 -27 -21 -43c0 -28 15 -44 48 -44h141c94 0 163 -35 163 -135c0 -94 -72 -172 -247 -172zM242 -127c116 0 157 34 157 86c0 46 -21 65 -87 65h-145c-35 -12 -62 -39 -62 -80c0 -47 41 -71 137 -71zM246 250c68 0 107 31 107 94v15c0 67 -42 97 -107 97
c-68 0 -107 -35 -107 -95v-15c0 -65 42 -96 107 -96zM317 746l-12 -140h-99l46 140h65z" />
    <glyph glyph-name="gdotaccent" unicode="&#x121;" horiz-adv-x="503" 
d="M244 -199c-156 0 -232 51 -232 130c0 55 43 92 96 110v5c-30 11 -52 36 -52 71s18 69 59 99c-39 26 -64 68 -64 128v10c0 108 82 169 196 169c26 0 51 -3 74 -9h175v-67h-87c21 -23 32 -52 32 -89v-10c0 -111 -87 -165 -195 -165c-31 0 -60 4 -86 12
c-12 -11 -21 -27 -21 -43c0 -28 15 -44 48 -44h141c94 0 163 -35 163 -135c0 -94 -72 -172 -247 -172zM242 -127c116 0 157 34 157 86c0 46 -21 65 -87 65h-145c-35 -12 -62 -39 -62 -80c0 -47 41 -71 137 -71zM246 250c68 0 107 31 107 94v15c0 67 -42 97 -107 97
c-68 0 -107 -35 -107 -95v-15c0 -65 42 -96 107 -96zM215 615v91h90v-91h-90z" />
    <glyph glyph-name="hbar" unicode="&#x127;" horiz-adv-x="534" 
d="M63 0v588h-64v61h64v90h88v-90h146v-61h-146v-117h5c42 29 106 52 169 52c101 0 149 -42 149 -141v-382h-88v363c0 59 -19 84 -100 84c-45 0 -98 -17 -135 -34v-413h-88z" />
    <glyph glyph-name="hcircumflex" unicode="&#x125;" horiz-adv-x="534" 
d="M63 0v739h88v-268h5c42 29 106 52 169 52c101 0 149 -42 149 -141v-382h-88v363c0 59 -19 84 -100 84c-45 0 -98 -17 -135 -34v-413h-88zM139 790l99 124h72l99 -124h-69l-67 60l-65 -60h-69z" />
    <glyph glyph-name="ibreve" unicode="&#x12d;" horiz-adv-x="220" 
d="M66 0v513h88v-513h-88zM110 593c-76 0 -123 52 -124 126h67c3 -37 22 -60 57 -60s54 23 57 60h67c-2 -74 -50 -126 -124 -126z" />
    <glyph glyph-name="imacron" unicode="&#x12b;" horiz-adv-x="220" 
d="M15 620v73h190v-73h-190zM66 0v513h88v-513h-88z" />
    <glyph glyph-name="iogonek" unicode="&#x12f;" horiz-adv-x="220" 
d="M3 -113c0 46 31 83 63 108v518h88v-512c-42 -33 -73 -68 -73 -103c0 -30 23 -38 49 -38c13 0 26 2 33 4v-54c-14 -5 -31 -10 -56 -10c-66 0 -104 35 -104 87zM65 615v91h90v-91h-90z" />
    <glyph glyph-name="itilde" unicode="&#x129;" horiz-adv-x="220" 
d="M66 0v513h88v-513h-88zM-27 604c7 76 49 108 87 108c42 0 74 -35 97 -35c17 0 26 12 30 37h60c-7 -76 -49 -108 -87 -108c-42 0 -75 35 -97 35c-17 0 -26 -12 -30 -37h-60z" />
    <glyph glyph-name="idotaccent" horiz-adv-x="220" 
d="M66 0v513h88v-513h-88zM65 615v91h90v-91h-90z" />
    <glyph glyph-name="jcircumflex" unicode="&#x135;" horiz-adv-x="220" 
d="M-17 587l90 144h76l90 -144h-71l-58 77l-56 -77h-71zM12 -199c-36 0 -58 6 -78 17v61c18 -3 38 -6 55 -6c48 0 77 23 77 77v563h88v-568c0 -83 -42 -144 -142 -144z" />
    <glyph glyph-name="kcommaaccent" unicode="&#x137;" horiz-adv-x="478" 
d="M63 0v739h88v-739h-88zM367 0l-192 265l182 248h95l-181 -242l197 -271h-101zM196 -182l12 140h99l-46 -140h-65z" />
    <glyph glyph-name="lacute" unicode="&#x13a;" horiz-adv-x="220" 
d="M66 0v739h88v-739h-88zM69 790l73 125h99l-94 -125h-78z" />
    <glyph glyph-name="lcaron" unicode="&#x13e;" horiz-adv-x="220" 
d="M66 0v739h88v-739h-88zM263 576h-63l10 163h86z" />
    <glyph glyph-name="lcommaaccent" unicode="&#x13c;" horiz-adv-x="220" 
d="M66 0v739h88v-739h-88zM50 -182l12 140h99l-46 -140h-65z" />
    <glyph glyph-name="ldot" unicode="&#x140;" horiz-adv-x="280" 
d="M66 0v739h88v-739h-88zM205 309v91h90v-91h-90z" />
    <glyph glyph-name="nacute" unicode="&#x144;" horiz-adv-x="534" 
d="M63 0v513h84v-44h5c43 30 110 54 173 54c101 0 149 -42 149 -141v-382h-88v363c0 59 -19 84 -100 84c-45 0 -98 -17 -135 -34v-413h-88zM223 587l86 145h99l-107 -145h-78z" />
    <glyph glyph-name="napostrophe" unicode="&#x149;" horiz-adv-x="560" 
d="M89 0v513h84v-44h5c43 30 110 54 173 54c101 0 149 -42 149 -141v-382h-88v363c0 59 -19 84 -100 84c-45 0 -98 -17 -135 -34v-413h-88zM-36 508l13 185h97l-33 -185h-77z" />
    <glyph glyph-name="ncaron" unicode="&#x148;" horiz-adv-x="534" 
d="M63 0v513h84v-44h5c43 30 110 54 173 54c101 0 149 -42 149 -141v-382h-88v363c0 59 -19 84 -100 84c-45 0 -98 -17 -135 -34v-413h-88zM232 587l-102 144h70l71 -78l69 78h70l-102 -144h-76z" />
    <glyph glyph-name="ncommaaccent" unicode="&#x146;" horiz-adv-x="534" 
d="M63 0v513h84v-44h5c43 30 110 54 173 54c101 0 149 -42 149 -141v-382h-88v363c0 59 -19 84 -100 84c-45 0 -98 -17 -135 -34v-413h-88zM210 -182l12 140h99l-46 -140h-65z" />
    <glyph glyph-name="nacute.pl" horiz-adv-x="534" 
d="M63 0v513h84v-44h5c43 30 110 54 173 54c101 0 149 -42 149 -141v-382h-88v363c0 59 -19 84 -100 84c-45 0 -98 -17 -135 -34v-413h-88zM235 587l46 145h96l-71 -145h-71z" />
    <glyph glyph-name="obreve" unicode="&#x14f;" horiz-adv-x="531" 
d="M265 -10c-148 0 -234 95 -234 256v17c0 161 94 260 235 260c147 0 234 -96 234 -257v-16c0 -162 -94 -260 -235 -260zM267 62c89 0 142 63 142 178v28c0 139 -65 183 -145 183c-90 0 -142 -65 -142 -179v-28c0 -139 65 -182 145 -182zM265 593c-76 0 -128 52 -132 126h67
c6 -37 25 -60 65 -60s59 23 65 60h67c-3 -74 -56 -126 -132 -126z" />
    <glyph glyph-name="ohungarumlaut" unicode="&#x151;" horiz-adv-x="531" 
d="M265 -10c-148 0 -234 95 -234 256v17c0 161 94 260 235 260c147 0 234 -96 234 -257v-16c0 -162 -94 -260 -235 -260zM267 62c89 0 142 63 142 178v28c0 139 -65 183 -145 183c-90 0 -142 -65 -142 -179v-28c0 -139 65 -182 145 -182zM148 587l48 145h95l-69 -145h-74z
M306 587l47 145h95l-69 -145h-73z" />
    <glyph glyph-name="omacron" unicode="&#x14d;" horiz-adv-x="531" 
d="M265 -10c-148 0 -234 95 -234 256v17c0 161 94 260 235 260c147 0 234 -96 234 -257v-16c0 -162 -94 -260 -235 -260zM267 62c89 0 142 63 142 178v28c0 139 -65 183 -145 183c-90 0 -142 -65 -142 -179v-28c0 -139 65 -182 145 -182zM146 620v73h238v-73h-238z" />
    <glyph glyph-name="oacute.pl" horiz-adv-x="531" 
d="M265 -10c-148 0 -234 95 -234 256v17c0 161 94 260 235 260c147 0 234 -96 234 -257v-16c0 -162 -94 -260 -235 -260zM267 62c89 0 142 63 142 178v28c0 139 -65 183 -145 183c-90 0 -142 -65 -142 -179v-28c0 -139 65 -182 145 -182zM230 587l46 145h96l-71 -145h-71z
" />
    <glyph glyph-name="oslashacute" unicode="&#x1ff;" horiz-adv-x="531" 
d="M265 -10c-63 0 -115 17 -153 49l-34 -39h-79l73 84c-27 41 -41 96 -41 162v17c0 161 94 260 235 260c59 0 109 -16 147 -45l31 35h79l-69 -79c30 -43 46 -100 46 -168v-16c0 -162 -94 -260 -235 -260zM267 61c89 0 142 64 142 179v28c0 40 -5 72 -14 98l-233 -269
c25 -26 60 -36 105 -36zM122 244c0 -37 3 -66 10 -91l230 266c-25 23 -58 33 -98 33c-90 0 -142 -66 -142 -180v-28zM217 587l86 145h99l-107 -145h-78z" />
    <glyph glyph-name="racute" unicode="&#x155;" horiz-adv-x="338" 
d="M63 0v513h84v-57h5c29 34 84 63 139 63c13 0 27 -2 32 -4v-78c-13 2 -30 3 -39 3c-48 0 -97 -16 -133 -40v-400h-88zM159 587l86 145h99l-107 -145h-78z" />
    <glyph glyph-name="rcaron" unicode="&#x159;" horiz-adv-x="338" 
d="M63 0v513h84v-57h5c29 34 84 63 139 63c13 0 27 -2 32 -4v-78c-13 2 -30 3 -39 3c-48 0 -97 -16 -133 -40v-400h-88zM168 587l-102 144h70l71 -78l69 78h70l-102 -144h-76z" />
    <glyph glyph-name="rcommaaccent" unicode="&#x157;" horiz-adv-x="338" 
d="M63 0v513h84v-57h5c29 34 84 63 139 63c13 0 27 -2 32 -4v-78c-13 2 -30 3 -39 3c-48 0 -97 -16 -133 -40v-400h-88zM45 -182l12 140h99l-46 -140h-65z" />
    <glyph glyph-name="sacute" unicode="&#x15b;" horiz-adv-x="409" 
d="M195 -9c-66 0 -123 12 -166 36v70c44 -17 81 -32 154 -32c76 0 109 26 109 71c0 42 -21 63 -84 80l-49 13c-74 20 -128 54 -128 143c0 90 57 151 180 151c69 0 111 -15 140 -30v-71c-26 12 -79 27 -136 27c-66 0 -100 -23 -100 -68c0 -42 22 -59 74 -73l49 -13
c100 -27 141 -60 141 -151c0 -101 -72 -153 -184 -153zM159 587l86 145h99l-107 -145h-78z" />
    <glyph glyph-name="scedilla" unicode="&#x15f;" horiz-adv-x="409" 
d="M126 -217v52c73 6 102 18 102 41c0 24 -26 31 -81 31v86c-46 5 -86 16 -118 34v70c44 -17 81 -32 154 -32c76 0 109 26 109 71c0 42 -21 63 -84 80l-49 13c-74 20 -128 54 -128 143c0 90 57 151 180 151c69 0 111 -15 140 -30v-71c-26 12 -79 27 -136 27
c-66 0 -100 -23 -100 -68c0 -42 22 -59 74 -73l49 -13c100 -27 141 -60 141 -151c0 -99 -68 -150 -175 -153v-39c60 -3 96 -26 96 -70c0 -59 -44 -90 -174 -99z" />
    <glyph glyph-name="scircumflex" unicode="&#x15d;" horiz-adv-x="409" 
d="M195 -9c-66 0 -123 12 -166 36v70c44 -17 81 -32 154 -32c76 0 109 26 109 71c0 42 -21 63 -84 80l-49 13c-74 20 -128 54 -128 143c0 90 57 151 180 151c69 0 111 -15 140 -30v-71c-26 12 -79 27 -136 27c-66 0 -100 -23 -100 -68c0 -42 22 -59 74 -73l49 -13
c100 -27 141 -60 141 -151c0 -101 -72 -153 -184 -153zM66 587l102 144h76l102 -144h-70l-71 78l-69 -78h-70z" />
    <glyph glyph-name="scommaaccent" unicode="&#x219;" horiz-adv-x="409" 
d="M195 -9c-66 0 -123 12 -166 36v70c44 -17 81 -32 154 -32c76 0 109 26 109 71c0 42 -21 63 -84 80l-49 13c-74 20 -128 54 -128 143c0 90 57 151 180 151c69 0 111 -15 140 -30v-71c-26 12 -79 27 -136 27c-66 0 -100 -23 -100 -68c0 -42 22 -59 74 -73l49 -13
c100 -27 141 -60 141 -151c0 -101 -72 -153 -184 -153zM138 -182l12 140h99l-46 -140h-65z" />
    <glyph glyph-name="sacute.pl" horiz-adv-x="409" 
d="M195 -9c-66 0 -123 12 -166 36v70c44 -17 81 -32 154 -32c76 0 109 26 109 71c0 42 -21 63 -84 80l-49 13c-74 20 -128 54 -128 143c0 90 57 151 180 151c69 0 111 -15 140 -30v-71c-26 12 -79 27 -136 27c-66 0 -100 -23 -100 -68c0 -42 22 -59 74 -73l49 -13
c100 -27 141 -60 141 -151c0 -101 -72 -153 -184 -153zM171 587l46 145h96l-71 -145h-71z" />
    <glyph glyph-name="tbar" unicode="&#x167;" horiz-adv-x="342" 
d="M17 289v61h73v90h-73v73h73v122h88v-122h129v-73h-129v-90h129v-61h-129v-156c0 -49 16 -67 74 -67c21 0 45 3 65 8v-59c-21 -10 -42 -21 -88 -21c-82 0 -139 35 -139 126v169h-73z" />
    <glyph glyph-name="tcaron" unicode="&#x165;" horiz-adv-x="342" 
d="M229 -6c-82 0 -139 35 -139 126v320h-73v73h73v122h88v-122h129v-73h-129v-307c0 -49 16 -67 74 -67c21 0 45 3 65 8v-59c-21 -10 -42 -21 -88 -21zM304 576h-63l10 163h86z" />
    <glyph glyph-name="tcommaaccent" unicode="&#x163;" horiz-adv-x="342" 
d="M229 -6c-82 0 -139 35 -139 126v320h-73v73h73v122h88v-122h129v-73h-129v-307c0 -49 16 -67 74 -67c21 0 45 3 65 8v-59c-21 -10 -42 -21 -88 -21zM143 -182l12 140h99l-46 -140h-65z" />
    <glyph glyph-name="ubreve" unicode="&#x16d;" horiz-adv-x="527" 
d="M217 -10c-101 0 -157 52 -157 151v372h88v-358c0 -63 21 -89 95 -89c53 0 96 18 133 37v410h88v-513h-75l-9 44h-5c-43 -30 -95 -54 -158 -54zM264 593c-76 0 -128 52 -132 126h67c6 -37 25 -60 65 -60s59 23 65 60h67c-3 -74 -56 -126 -132 -126z" />
    <glyph glyph-name="uhungarumlaut" unicode="&#x171;" horiz-adv-x="527" 
d="M217 -10c-101 0 -157 52 -157 151v372h88v-358c0 -63 21 -89 95 -89c53 0 96 18 133 37v410h88v-513h-75l-9 44h-5c-43 -30 -95 -54 -158 -54zM147 587l48 145h95l-69 -145h-74zM305 587l47 145h95l-69 -145h-73z" />
    <glyph glyph-name="umacron" unicode="&#x16b;" horiz-adv-x="527" 
d="M217 -10c-101 0 -157 52 -157 151v372h88v-358c0 -63 21 -89 95 -89c53 0 96 18 133 37v410h88v-513h-75l-9 44h-5c-43 -30 -95 -54 -158 -54zM145 620v73h238v-73h-238z" />
    <glyph glyph-name="uogonek" unicode="&#x173;" horiz-adv-x="527" 
d="M416 -200c-68 0 -107 33 -107 85c0 54 45 95 80 117l-9 42h-5c-43 -30 -95 -54 -158 -54c-101 0 -157 52 -157 151v372h88v-358c0 -63 21 -89 95 -89c53 0 96 18 133 37v410h88v-513c-43 -32 -77 -69 -77 -104c0 -30 23 -36 52 -36c13 0 26 2 33 4v-54
c-14 -5 -31 -10 -56 -10z" />
    <glyph glyph-name="uring" unicode="&#x16f;" horiz-adv-x="527" 
d="M217 -10c-101 0 -157 52 -157 151v372h88v-358c0 -63 21 -89 95 -89c53 0 96 18 133 37v410h88v-513h-75l-9 44h-5c-43 -30 -95 -54 -158 -54zM264 576c-55 0 -96 42 -96 92s41 92 96 92s96 -42 96 -92s-41 -92 -96 -92zM264 619c29 0 48 19 48 49c0 29 -19 49 -48 49
s-48 -20 -48 -49c0 -30 19 -49 48 -49z" />
    <glyph glyph-name="utilde" unicode="&#x169;" horiz-adv-x="527" 
d="M217 -10c-101 0 -157 52 -157 151v372h88v-358c0 -63 21 -89 95 -89c53 0 96 18 133 37v410h88v-513h-75l-9 44h-5c-43 -30 -95 -54 -158 -54zM115 604c8 76 53 108 96 108s78 -35 106 -35c19 0 31 12 36 37h60c-8 -76 -53 -108 -96 -108s-78 35 -106 35
c-19 0 -31 -12 -36 -37h-60z" />
    <glyph glyph-name="wacute" unicode="&#x1e83;" horiz-adv-x="734" 
d="M161 0l-145 513h94l101 -400h4l118 400h77l119 -400h4l101 400h84l-145 -513h-89l-114 378h-4l-115 -378h-90zM323 587l86 145h99l-107 -145h-78z" />
    <glyph glyph-name="wcircumflex" unicode="&#x175;" horiz-adv-x="734" 
d="M161 0l-145 513h94l101 -400h4l118 400h77l119 -400h4l101 400h84l-145 -513h-89l-114 378h-4l-115 -378h-90zM230 587l102 144h76l102 -144h-70l-71 78l-69 -78h-70z" />
    <glyph glyph-name="wdieresis" unicode="&#x1e85;" horiz-adv-x="734" 
d="M161 0l-145 513h94l101 -400h4l118 400h77l119 -400h4l101 400h84l-145 -513h-89l-114 378h-4l-115 -378h-90zM412 615v89h86v-89h-86zM242 615v89h86v-89h-86z" />
    <glyph glyph-name="wgrave" unicode="&#x1e81;" horiz-adv-x="734" 
d="M161 0l-145 513h94l101 -400h4l118 400h77l119 -400h4l101 400h84l-145 -513h-89l-114 378h-4l-115 -378h-90zM336 587l-107 145h99l86 -145h-78z" />
    <glyph glyph-name="ycircumflex" unicode="&#x177;" horiz-adv-x="479" 
d="M96 -199c-24 0 -51 7 -66 15v62c13 -2 31 -4 50 -4c47 0 80 22 102 77l23 59l-197 503h95l145 -387h3l133 387h87l-208 -574c-35 -98 -80 -138 -167 -138zM110 587l102 144h76l102 -144h-70l-71 78l-69 -78h-70z" />
    <glyph glyph-name="ygrave" unicode="&#x1ef3;" horiz-adv-x="479" 
d="M96 -199c-24 0 -51 7 -66 15v62c13 -2 31 -4 50 -4c47 0 80 22 102 77l23 59l-197 503h95l145 -387h3l133 387h87l-208 -574c-35 -98 -80 -138 -167 -138zM216 587l-107 145h99l86 -145h-78z" />
    <glyph glyph-name="zacute" unicode="&#x17a;" horiz-adv-x="447" 
d="M32 0v65l274 373v3h-259v72h366v-63l-274 -375v-3h273v-72h-380zM188 587l86 145h99l-107 -145h-78z" />
    <glyph glyph-name="zdotaccent" unicode="&#x17c;" horiz-adv-x="447" 
d="M32 0v65l274 373v3h-259v72h366v-63l-274 -375v-3h273v-72h-380zM190 615v91h90v-91h-90z" />
    <glyph glyph-name="zacute.pl" horiz-adv-x="447" 
d="M32 0v65l274 373v3h-259v72h366v-63l-274 -375v-3h273v-72h-380zM195 587l46 145h96l-71 -145h-71z" />
    <glyph glyph-name="oneeighth" unicode="&#x215b;" horiz-adv-x="793" 
d="M105 277v342l-83 -13v46l118 44h38v-419h-73zM36 -40l511 753h74l-511 -753h-74zM605 -7c-101 0 -158 44 -158 112c0 49 41 87 86 107c-42 22 -73 51 -73 102c0 65 55 110 145 110c88 0 143 -39 143 -105c0 -45 -32 -80 -75 -102c49 -20 92 -46 92 -104
c0 -71 -59 -120 -160 -120zM603 48c53 0 87 22 87 59c0 43 -36 56 -109 82c-36 -18 -64 -42 -64 -79c0 -41 33 -62 86 -62zM621 242c35 19 58 37 58 73c0 32 -25 54 -74 54c-44 0 -73 -19 -73 -53c0 -36 33 -51 89 -74z" />
    <glyph glyph-name="onethird" unicode="&#x2153;" horiz-adv-x="800" 
d="M105 277v342l-83 -13v46l118 44h38v-419h-73zM51 -40l511 753h74l-511 -753h-74zM608 -7c-54 0 -91 12 -116 26v54c28 -11 64 -21 97 -21c62 0 100 21 100 69s-36 67 -91 67h-40v55h34c51 0 85 20 85 63c0 45 -32 58 -80 58c-37 0 -63 -6 -89 -15v53c30 14 69 21 110 21
c79 0 133 -38 133 -104c0 -50 -28 -82 -77 -97v-2c56 -11 92 -42 92 -104c0 -78 -62 -123 -158 -123z" />
    <glyph glyph-name="threeeighths" unicode="&#x215c;" horiz-adv-x="851" 
d="M147 270c-54 0 -91 12 -116 26v54c28 -11 64 -21 97 -21c62 0 100 21 100 69s-36 67 -91 67h-40v55h34c51 0 85 20 85 63c0 45 -32 58 -80 58c-37 0 -63 -6 -89 -15v53c30 14 69 21 110 21c79 0 133 -38 133 -104c0 -50 -28 -82 -77 -97v-2c56 -11 92 -42 92 -104
c0 -78 -62 -123 -158 -123zM110 -40l511 753h74l-511 -753h-74zM663 -7c-101 0 -158 44 -158 112c0 49 41 87 86 107c-42 22 -73 51 -73 102c0 65 55 110 145 110c88 0 143 -39 143 -105c0 -45 -32 -80 -75 -102c49 -20 92 -46 92 -104c0 -71 -59 -120 -160 -120zM661 48
c53 0 87 22 87 59c0 43 -36 56 -109 82c-36 -18 -64 -42 -64 -79c0 -41 33 -62 86 -62zM679 242c35 19 58 37 58 73c0 32 -25 54 -74 54c-44 0 -73 -19 -73 -53c0 -36 33 -51 89 -74z" />
    <glyph glyph-name="fiveeighths" unicode="&#x215d;" horiz-adv-x="841" 
d="M146 270c-53 0 -92 11 -118 26v54c28 -12 62 -21 99 -21c60 0 99 24 99 78c0 56 -36 75 -99 75c-31 0 -60 -4 -81 -10l15 221h225v-58h-170l-8 -103c14 3 29 5 49 5c91 0 146 -40 146 -130c0 -83 -60 -137 -157 -137zM100 -40l511 753h74l-511 -753h-74zM653 -7
c-101 0 -158 44 -158 112c0 49 41 87 86 107c-42 22 -73 51 -73 102c0 65 55 110 145 110c88 0 143 -39 143 -105c0 -45 -32 -80 -75 -102c49 -20 92 -46 92 -104c0 -71 -59 -120 -160 -120zM651 48c53 0 87 22 87 59c0 43 -36 56 -109 82c-36 -18 -64 -42 -64 -79
c0 -41 33 -62 86 -62zM669 242c35 19 58 37 58 73c0 32 -25 54 -74 54c-44 0 -73 -19 -73 -53c0 -36 33 -51 89 -74z" />
    <glyph glyph-name="twothirds" unicode="&#x2154;" horiz-adv-x="866" 
d="M35 277v50l93 93c57 56 91 97 91 150c0 50 -27 71 -78 71c-39 0 -74 -10 -99 -22v55c30 15 65 26 115 26c89 0 140 -47 140 -123c0 -71 -41 -117 -113 -184l-62 -57v-1h184v-58h-271zM147 -40l511 753h74l-511 -753h-74zM674 -7c-54 0 -91 12 -116 26v54
c28 -11 64 -21 97 -21c62 0 100 21 100 69s-36 67 -91 67h-40v55h34c51 0 85 20 85 63c0 45 -32 58 -80 58c-37 0 -63 -6 -89 -15v53c30 14 69 21 110 21c79 0 133 -38 133 -104c0 -50 -28 -82 -77 -97v-2c56 -11 92 -42 92 -104c0 -78 -62 -123 -158 -123z" />
    <glyph glyph-name="seveneighths" unicode="&#x215e;" horiz-adv-x="809" 
d="M64 277l166 354v2h-200v60h276v-54l-159 -362h-83zM59 -40l511 753h74l-511 -753h-74zM621 -7c-101 0 -158 44 -158 112c0 49 41 87 86 107c-42 22 -73 51 -73 102c0 65 55 110 145 110c88 0 143 -39 143 -105c0 -45 -32 -80 -75 -102c49 -20 92 -46 92 -104
c0 -71 -59 -120 -160 -120zM619 48c53 0 87 22 87 59c0 43 -36 56 -109 82c-36 -18 -64 -42 -64 -79c0 -41 33 -62 86 -62zM637 242c35 19 58 37 58 73c0 32 -25 54 -74 54c-44 0 -73 -19 -73 -53c0 -36 33 -51 89 -74z" />
    <glyph glyph-name="uni24C5" unicode="&#x24c5;" horiz-adv-x="800" 
d="M399 -14c-203 0 -354 161 -354 358s151 356 354 356c202 0 356 -159 356 -356s-154 -358 -356 -358zM399 36c172 0 296 129 296 308s-124 306 -296 306c-173 0 -294 -127 -294 -306s121 -308 294 -308zM275 161v373h133c97 0 146 -41 146 -118c0 -84 -54 -119 -136 -119
h-68v-136h-75zM350 353h60c43 0 67 19 67 64s-30 59 -71 59h-56v-123z" />
    <glyph glyph-name="dollar.old" horiz-adv-x="483" 
d="M165 -108l12 98c-59 6 -108 22 -144 42v72c44 -21 94 -38 153 -42l29 234l-30 10c-85 27 -143 70 -143 173s69 176 208 176h9l8 64h62l-9 -69c42 -7 72 -19 97 -31v-72c-26 12 -63 24 -106 30l-27 -217h2c102 -33 158 -74 158 -182c0 -110 -66 -185 -205 -190l-12 -96
h-62zM127 487c0 -57 21 -83 93 -106l5 -2l25 203h-1c-76 0 -122 -36 -122 -95zM355 171c0 54 -17 82 -81 106l-26 -214c73 9 107 51 107 108z" />
    <glyph glyph-name="Euro.old" horiz-adv-x="539" 
d="M24 355v69h70c26 171 138 231 264 231c64 0 108 -14 148 -36v-71c-54 21 -93 32 -154 32c-85 0 -152 -35 -169 -156h201v-69h-205v-71h205v-69h-198c17 -102 70 -153 176 -153c69 0 110 20 151 39v-71c-45 -26 -97 -41 -162 -41c-131 0 -229 70 -255 226h-72v69h65v71
h-65z" />
    <glyph glyph-name="sterling.old" horiz-adv-x="491" 
d="M41 284v69h75v87c0 153 105 214 210 214c55 0 99 -15 129 -34v-59c-37 13 -65 21 -114 21c-70 0 -137 -30 -137 -146v-83h174v-69h-174v-46c0 -85 -24 -126 -75 -163v-2h331v-73h-428v64c56 33 84 79 84 171v49h-75z" />
    <glyph glyph-name="yen.old" horiz-adv-x="506" 
d="M210 0v117h-164v69h164v72h-164v69h133l-167 316h94l151 -296h3l148 296h86l-166 -316h134v-69h-165v-72h165v-69h-165v-117h-87z" />
    <glyph glyph-name="zero.old" horiz-adv-x="589" 
d="M295 -13c-137 0 -258 81 -258 293v24c0 217 122 301 258 301c138 0 257 -80 257 -295v-24c0 -215 -120 -299 -257 -299zM295 59c105 0 169 56 169 214v38c0 152 -62 222 -168 222s-168 -64 -168 -216v-38c0 -152 62 -220 167 -220z" />
    <glyph glyph-name="one.old" horiz-adv-x="331" 
d="M154 0v493l-131 -14v52l187 68h32v-599h-88z" />
    <glyph glyph-name="two.old" horiz-adv-x="462" 
d="M29 0v63l160 145c96 87 139 138 139 214c0 77 -43 111 -121 111c-56 0 -104 -15 -145 -32v62c44 25 96 42 166 42c120 0 190 -66 190 -176c0 -94 -56 -166 -171 -261l-111 -92v-3h283v-73h-390z" />
    <glyph glyph-name="three.old" horiz-adv-x="493" 
d="M201 -111c-84 0 -137 20 -178 44v66c48 -21 103 -38 158 -38c110 0 180 45 180 136c0 89 -59 127 -159 127h-64v73h52c90 0 144 40 144 121c0 84 -46 115 -129 115c-65 0 -102 -14 -146 -30v66c47 23 107 36 169 36c126 0 196 -64 196 -173c0 -83 -44 -135 -127 -161v-3
c93 -18 155 -72 155 -175c0 -130 -97 -204 -251 -204z" />
    <glyph glyph-name="four.old" horiz-adv-x="565" 
d="M340 -100v188h-324v66l337 439h73v-432h123v-73h-123v-188h-86zM109 161h231v299h-4l-227 -296v-3z" />
    <glyph glyph-name="five.old" horiz-adv-x="486" 
d="M208 -111c-88 0 -143 19 -185 45v66c49 -23 99 -38 165 -38c105 0 166 51 166 154c0 104 -57 138 -166 138c-54 0 -103 -8 -136 -18l26 357h357v-73h-286l-15 -202c22 5 48 9 80 9c143 0 231 -61 231 -210c0 -134 -91 -228 -237 -228z" />
    <glyph glyph-name="six.old" horiz-adv-x="549" 
d="M288 -13c-157 0 -249 117 -249 300v44c0 272 149 374 303 374c59 0 109 -10 138 -27v-66c-26 9 -74 20 -122 20c-111 0 -218 -54 -228 -270c39 30 104 61 178 61c120 0 206 -62 206 -199c0 -130 -79 -237 -226 -237zM287 59c89 0 138 63 138 156c0 113 -61 135 -141 135
c-65 0 -116 -23 -155 -48v-17c0 -132 49 -226 158 -226z" />
    <glyph glyph-name="seven.old" horiz-adv-x="468" 
d="M72 -100l285 616v4h-330v73h416v-68l-274 -625h-97z" />
    <glyph glyph-name="eight.old" horiz-adv-x="551" 
d="M276 -13c-145 0 -237 71 -237 186c0 86 57 149 144 186c-71 35 -119 82 -119 168c0 103 84 178 212 178c126 0 213 -64 213 -172c0 -80 -48 -138 -128 -176c88 -32 151 -75 151 -175c0 -112 -89 -195 -236 -195zM274 58c89 0 149 46 149 114c0 79 -43 103 -184 155
c-63 -31 -114 -81 -114 -150c0 -75 59 -119 149 -119zM303 387c67 36 98 76 98 141c0 58 -36 106 -124 106c-75 0 -124 -40 -124 -103c0 -67 39 -102 150 -144z" />
    <glyph glyph-name="nine.old" horiz-adv-x="549" 
d="M212 -113c-64 0 -119 12 -149 31v66c27 -11 80 -24 133 -24c117 0 213 58 223 270c-39 -30 -104 -61 -178 -61c-120 0 -206 62 -206 199c0 130 79 237 226 237c157 0 249 -117 249 -300v-44c0 -270 -132 -374 -298 -374zM265 242c65 0 116 23 155 48v17
c0 132 -49 226 -158 226c-89 0 -138 -63 -138 -156c0 -113 61 -135 141 -135z" />
    <glyph glyph-name="percent.old" horiz-adv-x="817" 
d="M188 287c-92 0 -153 62 -153 165v13c0 100 61 170 153 170s153 -62 153 -164v-12c0 -101 -61 -172 -153 -172zM629 -7c-92 0 -153 62 -153 165v13c0 100 61 170 153 170s153 -62 153 -164v-12c0 -101 -61 -172 -153 -172zM149 -30l435 673h76l-435 -673h-76zM629 49
c50 0 76 31 76 108v20c0 76 -28 108 -76 108s-76 -31 -76 -107v-20c0 -78 26 -109 76 -109zM188 343c50 0 76 31 76 108v20c0 76 -28 108 -76 108s-76 -31 -76 -107v-20c0 -78 26 -109 76 -109z" />
    <glyph glyph-name="perthousand.old" horiz-adv-x="1169" 
d="M188 287c-92 0 -153 62 -153 165v13c0 100 61 170 153 170s153 -62 153 -164v-12c0 -101 -61 -172 -153 -172zM629 -7c-92 0 -153 62 -153 165v13c0 100 61 170 153 170s153 -62 153 -164v-12c0 -101 -61 -172 -153 -172zM149 -30l435 673h76l-435 -673h-76zM629 49
c50 0 76 31 76 108v20c0 76 -28 108 -76 108s-76 -31 -76 -107v-20c0 -78 26 -109 76 -109zM188 343c50 0 76 31 76 108v20c0 76 -28 108 -76 108s-76 -31 -76 -107v-20c0 -78 26 -109 76 -109zM981 -7c-92 0 -153 62 -153 165v13c0 100 61 170 153 170s153 -62 153 -164
v-12c0 -101 -61 -172 -153 -172zM981 49c50 0 76 31 76 108v20c0 76 -28 108 -76 108s-76 -31 -76 -107v-20c0 -78 26 -109 76 -109z" />
    <glyph glyph-name="plus.old" horiz-adv-x="555" 
d="M237 91v176h-169v77h169v176h81v-176h169v-77h-169v-176h-81z" />
    <glyph glyph-name="minus.old" horiz-adv-x="555" 
d="M68 267v77h419v-77h-419z" />
    <glyph glyph-name="multiply.old" horiz-adv-x="555" 
d="M129 96l-53 53l146 146l-146 146l53 53l146 -146l146 146l53 -53l-146 -146l146 -146l-53 -53l-146 146z" />
    <glyph glyph-name="divide.old" horiz-adv-x="554" 
d="M68 267v77h418v-77h-418zM227 99v101h100v-101h-100zM227 411v101h100v-101h-100z" />
    <glyph glyph-name="equal.old" horiz-adv-x="554" 
d="M69 329v74h416v-74h-416zM69 152v74h416v-74h-416z" />
    <glyph glyph-name="less.old" horiz-adv-x="511" 
d="M438 76l-376 180v71l376 180v-86l-282 -130l282 -127v-88z" />
    <glyph glyph-name="greater.old" horiz-adv-x="511" 
d="M73 76v86l282 130l-282 127v88l376 -180v-71z" />
    <glyph glyph-name="numbersign.old" horiz-adv-x="511" 
d="M78 0l30 188h-83v77h95l19 124h-83v77h95l28 177h71l-28 -177h109l28 177h71l-28 -177h83v-77h-95l-19 -124h83v-77h-95l-30 -188h-71l30 188h-109l-30 -188h-71zM191 265h109l19 124h-109z" />
    <glyph glyph-name="zero.num" horiz-adv-x="401" 
d="M201 270c-97 0 -173 59 -173 203v21c0 151 82 208 174 208c94 0 171 -57 171 -204v-22c0 -149 -77 -206 -172 -206zM201 327c67 0 96 41 96 142v30c0 98 -29 146 -95 146s-96 -44 -96 -143v-29c0 -98 29 -146 95 -146z" />
    <glyph glyph-name="one.num" horiz-adv-x="246" 
d="M102 277v342l-83 -13v46l118 44h38v-419h-73z" />
    <glyph glyph-name="two.num" horiz-adv-x="337" 
d="M32 277v50l93 93c57 56 91 97 91 150c0 50 -27 71 -78 71c-39 0 -74 -10 -99 -22v55c30 15 65 26 115 26c89 0 140 -47 140 -123c0 -71 -41 -117 -113 -184l-62 -57v-1h184v-58h-271z" />
    <glyph glyph-name="three.num" horiz-adv-x="333" 
d="M144 270c-54 0 -91 12 -116 26v54c28 -11 64 -21 97 -21c62 0 100 21 100 69s-36 67 -91 67h-40v55h34c51 0 85 20 85 63c0 45 -32 58 -80 58c-37 0 -63 -6 -89 -15v53c30 14 69 21 110 21c79 0 133 -38 133 -104c0 -50 -28 -82 -77 -97v-2c56 -11 92 -42 92 -104
c0 -78 -62 -123 -158 -123z" />
    <glyph glyph-name="four.num" horiz-adv-x="369" 
d="M211 277v109h-192v51l200 256h64v-252h75v-55h-75v-109h-72zM91 441h121v152h-3l-118 -149v-3z" />
    <glyph glyph-name="five.num" horiz-adv-x="332" 
d="M141 270c-53 0 -92 11 -118 26v54c28 -12 62 -21 99 -21c60 0 99 24 99 78c0 56 -36 75 -99 75c-31 0 -60 -4 -81 -10l15 221h225v-58h-170l-8 -103c14 3 29 5 49 5c91 0 146 -40 146 -130c0 -83 -60 -137 -157 -137z" />
    <glyph glyph-name="six.num" horiz-adv-x="365" 
d="M191 270c-104 0 -163 74 -163 188v26c0 161 92 218 196 218c41 0 72 -5 91 -15v-55c-16 5 -46 11 -76 11c-70 0 -128 -19 -134 -130c23 15 60 28 105 28c77 0 130 -44 130 -127c0 -79 -51 -144 -149 -144zM190 325c49 0 76 31 76 83c0 64 -33 78 -78 78
c-35 0 -63 -11 -84 -23v-11c0 -76 25 -127 86 -127z" />
    <glyph glyph-name="seven.num" horiz-adv-x="335" 
d="M61 277l166 354v2h-200v60h276v-54l-159 -362h-83z" />
    <glyph glyph-name="eight.num" horiz-adv-x="368" 
d="M183 270c-101 0 -158 44 -158 112c0 49 41 87 86 107c-42 22 -73 51 -73 102c0 65 55 110 145 110c88 0 143 -39 143 -105c0 -45 -32 -80 -75 -102c49 -20 92 -46 92 -104c0 -71 -59 -120 -160 -120zM181 325c53 0 87 22 87 59c0 43 -36 56 -109 82
c-36 -18 -64 -42 -64 -79c0 -41 33 -62 86 -62zM199 519c35 19 58 37 58 73c0 32 -25 54 -74 54c-44 0 -73 -19 -73 -53c0 -36 33 -51 89 -74z" />
    <glyph glyph-name="nine.num" horiz-adv-x="365" 
d="M142 270c-42 0 -76 6 -95 17v55c16 -6 49 -13 79 -13c83 0 131 25 134 131c-23 -15 -59 -28 -104 -28c-78 0 -131 43 -131 127c0 79 50 143 150 143c97 0 162 -63 162 -187v-26c0 -161 -82 -219 -195 -219zM177 486c36 0 63 12 84 24v10c0 82 -29 127 -85 127
c-51 0 -76 -31 -76 -83c0 -64 32 -78 77 -78z" />
    <glyph glyph-name="zero.den" horiz-adv-x="401" 
d="M201 -7c-97 0 -173 59 -173 203v21c0 151 82 208 174 208c94 0 171 -57 171 -204v-22c0 -149 -77 -206 -172 -206zM201 50c67 0 96 41 96 142v30c0 98 -29 146 -95 146s-96 -44 -96 -143v-29c0 -98 29 -146 95 -146z" />
    <glyph glyph-name="one.den" horiz-adv-x="246" 
d="M102 0v342l-83 -13v46l118 44h38v-419h-73z" />
    <glyph glyph-name="two.den" horiz-adv-x="337" 
d="M32 0v50l93 93c57 56 91 97 91 150c0 50 -27 71 -78 71c-39 0 -74 -10 -99 -22v55c30 15 65 26 115 26c89 0 140 -47 140 -123c0 -71 -41 -117 -113 -184l-62 -57v-1h184v-58h-271z" />
    <glyph glyph-name="three.den" horiz-adv-x="333" 
d="M144 -7c-54 0 -91 12 -116 26v54c28 -11 64 -21 97 -21c62 0 100 21 100 69s-36 67 -91 67h-40v55h34c51 0 85 20 85 63c0 45 -32 58 -80 58c-37 0 -63 -6 -89 -15v53c30 14 69 21 110 21c79 0 133 -38 133 -104c0 -50 -28 -82 -77 -97v-2c56 -11 92 -42 92 -104
c0 -78 -62 -123 -158 -123z" />
    <glyph glyph-name="four.den" horiz-adv-x="369" 
d="M211 0v109h-192v51l200 256h64v-252h75v-55h-75v-109h-72zM91 164h121v152h-3l-118 -149v-3z" />
    <glyph glyph-name="five.den" horiz-adv-x="332" 
d="M141 -7c-53 0 -92 11 -118 26v54c28 -12 62 -21 99 -21c60 0 99 24 99 78c0 56 -36 75 -99 75c-31 0 -60 -4 -81 -10l15 221h225v-58h-170l-8 -103c14 3 29 5 49 5c91 0 146 -40 146 -130c0 -83 -60 -137 -157 -137z" />
    <glyph glyph-name="six.den" horiz-adv-x="365" 
d="M191 -7c-104 0 -163 74 -163 188v26c0 161 92 218 196 218c41 0 72 -5 91 -15v-55c-16 5 -46 11 -76 11c-70 0 -128 -19 -134 -130c23 15 60 28 105 28c77 0 130 -44 130 -127c0 -79 -51 -144 -149 -144zM190 48c49 0 76 31 76 83c0 64 -33 78 -78 78
c-35 0 -63 -11 -84 -23v-11c0 -76 25 -127 86 -127z" />
    <glyph glyph-name="seven.den" horiz-adv-x="335" 
d="M61 0l166 354v2h-200v60h276v-54l-159 -362h-83z" />
    <glyph glyph-name="eight.den" horiz-adv-x="368" 
d="M183 -7c-101 0 -158 44 -158 112c0 49 41 87 86 107c-42 22 -73 51 -73 102c0 65 55 110 145 110c88 0 143 -39 143 -105c0 -45 -32 -80 -75 -102c49 -20 92 -46 92 -104c0 -71 -59 -120 -160 -120zM181 48c53 0 87 22 87 59c0 43 -36 56 -109 82
c-36 -18 -64 -42 -64 -79c0 -41 33 -62 86 -62zM199 242c35 19 58 37 58 73c0 32 -25 54 -74 54c-44 0 -73 -19 -73 -53c0 -36 33 -51 89 -74z" />
    <glyph glyph-name="nine.den" horiz-adv-x="365" 
d="M142 -7c-42 0 -76 6 -95 17v55c16 -6 49 -13 79 -13c83 0 131 25 134 131c-23 -15 -59 -28 -104 -28c-78 0 -131 43 -131 127c0 79 50 143 150 143c97 0 162 -63 162 -187v-26c0 -161 -82 -219 -195 -219zM177 209c36 0 63 12 84 24v10c0 82 -29 127 -85 127
c-51 0 -76 -31 -76 -83c0 -64 32 -78 77 -78z" />
    <glyph glyph-name="zero.sub" horiz-adv-x="401" 
d="M201 -127c-97 0 -173 59 -173 203v21c0 151 82 208 174 208c94 0 171 -57 171 -204v-22c0 -149 -77 -206 -172 -206zM201 -70c67 0 96 41 96 142v30c0 98 -29 146 -95 146s-96 -44 -96 -143v-29c0 -98 29 -146 95 -146z" />
    <glyph glyph-name="one.sub" horiz-adv-x="246" 
d="M102 -120v342l-83 -13v46l118 44h38v-419h-73z" />
    <glyph glyph-name="two.sub" horiz-adv-x="337" 
d="M32 -120v50l93 93c57 56 91 97 91 150c0 50 -27 71 -78 71c-39 0 -74 -10 -99 -22v55c30 15 65 26 115 26c89 0 140 -47 140 -123c0 -71 -41 -117 -113 -184l-62 -57v-1h184v-58h-271z" />
    <glyph glyph-name="three.sub" horiz-adv-x="333" 
d="M144 -127c-54 0 -91 12 -116 26v54c28 -11 64 -21 97 -21c62 0 100 21 100 69s-36 67 -91 67h-40v55h34c51 0 85 20 85 63c0 45 -32 58 -80 58c-37 0 -63 -6 -89 -15v53c30 14 69 21 110 21c79 0 133 -38 133 -104c0 -50 -28 -82 -77 -97v-2c56 -11 92 -42 92 -104
c0 -78 -62 -123 -158 -123z" />
    <glyph glyph-name="four.sub" horiz-adv-x="369" 
d="M211 -120v109h-192v51l200 256h64v-252h75v-55h-75v-109h-72zM91 44h121v152h-3l-118 -149v-3z" />
    <glyph glyph-name="five.sub" horiz-adv-x="332" 
d="M141 -127c-53 0 -92 11 -118 26v54c28 -12 62 -21 99 -21c60 0 99 24 99 78c0 56 -36 75 -99 75c-31 0 -60 -4 -81 -10l15 221h225v-58h-170l-8 -103c14 3 29 5 49 5c91 0 146 -40 146 -130c0 -83 -60 -137 -157 -137z" />
    <glyph glyph-name="six.sub" horiz-adv-x="365" 
d="M191 -127c-104 0 -163 74 -163 188v26c0 161 92 218 196 218c41 0 72 -5 91 -15v-55c-16 5 -46 11 -76 11c-70 0 -128 -19 -134 -130c23 15 60 28 105 28c77 0 130 -44 130 -127c0 -79 -51 -144 -149 -144zM190 -72c49 0 76 31 76 83c0 64 -33 78 -78 78
c-35 0 -63 -11 -84 -23v-11c0 -76 25 -127 86 -127z" />
    <glyph glyph-name="seven.sub" horiz-adv-x="335" 
d="M61 -120l166 354v2h-200v60h276v-54l-159 -362h-83z" />
    <glyph glyph-name="eight.sub" horiz-adv-x="368" 
d="M183 -127c-101 0 -158 44 -158 112c0 49 41 87 86 107c-42 22 -73 51 -73 102c0 65 55 110 145 110c88 0 143 -39 143 -105c0 -45 -32 -80 -75 -102c49 -20 92 -46 92 -104c0 -71 -59 -120 -160 -120zM181 -72c53 0 87 22 87 59c0 43 -36 56 -109 82
c-36 -18 -64 -42 -64 -79c0 -41 33 -62 86 -62zM199 122c35 19 58 37 58 73c0 32 -25 54 -74 54c-44 0 -73 -19 -73 -53c0 -36 33 -51 89 -74z" />
    <glyph glyph-name="nine.sub" horiz-adv-x="365" 
d="M142 -127c-42 0 -76 6 -95 17v55c16 -6 49 -13 79 -13c83 0 131 25 134 131c-23 -15 -59 -28 -104 -28c-78 0 -131 43 -131 127c0 79 50 143 150 143c97 0 162 -63 162 -187v-26c0 -161 -82 -219 -195 -219zM177 89c36 0 63 12 84 24v10c0 82 -29 127 -85 127
c-51 0 -76 -31 -76 -83c0 -64 32 -78 77 -78z" />
    <glyph glyph-name="zero.sup" horiz-adv-x="401" 
d="M201 315c-97 0 -173 59 -173 203v21c0 151 82 208 174 208c94 0 171 -57 171 -204v-22c0 -149 -77 -206 -172 -206zM201 372c67 0 96 41 96 142v30c0 98 -29 146 -95 146s-96 -44 -96 -143v-29c0 -98 29 -146 95 -146z" />
    <glyph glyph-name="one.sup" horiz-adv-x="246" 
d="M102 322v342l-83 -13v46l118 44h38v-419h-73z" />
    <glyph glyph-name="two.sup" horiz-adv-x="337" 
d="M32 322v50l93 93c57 56 91 97 91 150c0 50 -27 71 -78 71c-39 0 -74 -10 -99 -22v55c30 15 65 26 115 26c89 0 140 -47 140 -123c0 -71 -41 -117 -113 -184l-62 -57v-1h184v-58h-271z" />
    <glyph glyph-name="three.sup" horiz-adv-x="333" 
d="M144 315c-54 0 -91 12 -116 26v54c28 -11 64 -21 97 -21c62 0 100 21 100 69s-36 67 -91 67h-40v55h34c51 0 85 20 85 63c0 45 -32 58 -80 58c-37 0 -63 -6 -89 -15v53c30 14 69 21 110 21c79 0 133 -38 133 -104c0 -50 -28 -82 -77 -97v-2c56 -11 92 -42 92 -104
c0 -78 -62 -123 -158 -123z" />
    <glyph glyph-name="four.sup" horiz-adv-x="369" 
d="M211 322v109h-192v51l200 256h64v-252h75v-55h-75v-109h-72zM91 486h121v152h-3l-118 -149v-3z" />
    <glyph glyph-name="five.sup" horiz-adv-x="332" 
d="M141 315c-53 0 -92 11 -118 26v54c28 -12 62 -21 99 -21c60 0 99 24 99 78c0 56 -36 75 -99 75c-31 0 -60 -4 -81 -10l15 221h225v-58h-170l-8 -103c14 3 29 5 49 5c91 0 146 -40 146 -130c0 -83 -60 -137 -157 -137z" />
    <glyph glyph-name="six.sup" horiz-adv-x="365" 
d="M191 315c-104 0 -163 74 -163 188v26c0 161 92 218 196 218c41 0 72 -5 91 -15v-55c-16 5 -46 11 -76 11c-70 0 -128 -19 -134 -130c23 15 60 28 105 28c77 0 130 -44 130 -127c0 -79 -51 -144 -149 -144zM190 370c49 0 76 31 76 83c0 64 -33 78 -78 78
c-35 0 -63 -11 -84 -23v-11c0 -76 25 -127 86 -127z" />
    <glyph glyph-name="seven.sup" horiz-adv-x="335" 
d="M61 322l166 354v2h-200v60h276v-54l-159 -362h-83z" />
    <glyph glyph-name="eight.sup" horiz-adv-x="368" 
d="M183 315c-101 0 -158 44 -158 112c0 49 41 87 86 107c-42 22 -73 51 -73 102c0 65 55 110 145 110c88 0 143 -39 143 -105c0 -45 -32 -80 -75 -102c49 -20 92 -46 92 -104c0 -71 -59 -120 -160 -120zM181 370c53 0 87 22 87 59c0 43 -36 56 -109 82
c-36 -18 -64 -42 -64 -79c0 -41 33 -62 86 -62zM199 564c35 19 58 37 58 73c0 32 -25 54 -74 54c-44 0 -73 -19 -73 -53c0 -36 33 -51 89 -74z" />
    <glyph glyph-name="nine.sup" horiz-adv-x="365" 
d="M142 315c-42 0 -76 6 -95 17v55c16 -6 49 -13 79 -13c83 0 131 25 134 131c-23 -15 -59 -28 -104 -28c-78 0 -131 43 -131 127c0 79 50 143 150 143c97 0 162 -63 162 -187v-26c0 -161 -82 -219 -195 -219zM177 531c36 0 63 12 84 24v10c0 82 -29 127 -85 127
c-51 0 -76 -31 -76 -83c0 -64 32 -78 77 -78z" />
    <glyph glyph-name="uni2033" unicode="&#x2033;" horiz-adv-x="365" 
d="M213 508l13 185h97l-33 -185h-77zM55 508l13 185h97l-33 -185h-77z" />
    <glyph glyph-name="uni2032" unicode="&#x2032;" horiz-adv-x="207" 
d="M55 508l13 185h97l-33 -185h-77z" />
    <glyph glyph-name="g.alt" horiz-adv-x="544" 
d="M245 -205c-71 0 -144 17 -178 40v65c26 -11 92 -31 161 -31c104 0 165 34 165 134v49h-5c-30 -29 -74 -48 -142 -48c-99 0 -212 60 -212 243v14c0 182 96 262 228 262c62 0 104 -21 131 -39h5l9 29h74v-520c0 -144 -86 -198 -236 -198zM274 76c57 0 97 23 119 41v294
c-22 18 -69 36 -120 36c-93 0 -148 -44 -148 -174v-22c0 -135 60 -175 149 -175z" />
    <glyph glyph-name="l.alt" horiz-adv-x="264" 
d="M177 -6c-66 0 -111 31 -111 122v623h88v-613c0 -49 17 -61 47 -61c16 0 33 1 52 6v-61c-20 -9 -38 -16 -76 -16z" />
    <glyph glyph-name="gbreve.alt" horiz-adv-x="544" 
d="M245 -205c-71 0 -144 17 -178 40v65c26 -11 92 -31 161 -31c104 0 165 34 165 134v49h-5c-30 -29 -74 -48 -142 -48c-99 0 -212 60 -212 243v14c0 182 96 262 228 262c62 0 104 -21 131 -39h5l9 29h74v-520c0 -144 -86 -198 -236 -198zM274 76c57 0 97 23 119 41v294
c-22 18 -69 36 -120 36c-93 0 -148 -44 -148 -174v-22c0 -135 60 -175 149 -175zM271 593c-76 0 -128 52 -132 126h67c6 -37 25 -60 65 -60s59 23 65 60h67c-3 -74 -56 -126 -132 -126z" />
    <glyph glyph-name="gcircumflex.alt" horiz-adv-x="544" 
d="M245 -205c-71 0 -144 17 -178 40v65c26 -11 92 -31 161 -31c104 0 165 34 165 134v49h-5c-30 -29 -74 -48 -142 -48c-99 0 -212 60 -212 243v14c0 182 96 262 228 262c62 0 104 -21 131 -39h5l9 29h74v-520c0 -144 -86 -198 -236 -198zM274 76c57 0 97 23 119 41v294
c-22 18 -69 36 -120 36c-93 0 -148 -44 -148 -174v-22c0 -135 60 -175 149 -175zM131 587l102 144h76l102 -144h-70l-71 78l-69 -78h-70z" />
    <glyph glyph-name="gcommaaccent.alt" horiz-adv-x="544" 
d="M245 -205c-71 0 -144 17 -178 40v65c26 -11 92 -31 161 -31c104 0 165 34 165 134v49h-5c-30 -29 -74 -48 -142 -48c-99 0 -212 60 -212 243v14c0 182 96 262 228 262c62 0 104 -21 131 -39h5l9 29h74v-520c0 -144 -86 -198 -236 -198zM274 76c57 0 97 23 119 41v294
c-22 18 -69 36 -120 36c-93 0 -148 -44 -148 -174v-22c0 -135 60 -175 149 -175zM328 746l-12 -140h-99l46 140h65z" />
    <glyph glyph-name="gdotaccent.alt" horiz-adv-x="544" 
d="M245 -205c-71 0 -144 17 -178 40v65c26 -11 92 -31 161 -31c104 0 165 34 165 134v49h-5c-30 -29 -74 -48 -142 -48c-99 0 -212 60 -212 243v14c0 182 96 262 228 262c62 0 104 -21 131 -39h5l9 29h74v-520c0 -144 -86 -198 -236 -198zM274 76c57 0 97 23 119 41v294
c-22 18 -69 36 -120 36c-93 0 -148 -44 -148 -174v-22c0 -135 60 -175 149 -175zM226 615v91h90v-91h-90z" />
    <glyph glyph-name="lacute.alt" horiz-adv-x="264" 
d="M177 -6c-66 0 -111 31 -111 122v623h88v-613c0 -49 17 -61 47 -61c16 0 33 1 52 6v-61c-20 -9 -38 -16 -76 -16zM69 790l73 125h99l-94 -125h-78z" />
    <glyph glyph-name="lcaron.alt" horiz-adv-x="264" 
d="M177 -6c-66 0 -111 31 -111 122v623h88v-613c0 -49 17 -61 47 -61c16 0 33 1 52 6v-61c-20 -9 -38 -16 -76 -16zM263 576h-63l10 163h86z" />
    <glyph glyph-name="lcommaaccent.alt" horiz-adv-x="264" 
d="M177 -6c-66 0 -111 31 -111 122v623h88v-613c0 -49 17 -61 47 -61c16 0 33 1 52 6v-61c-20 -9 -38 -16 -76 -16zM96 -182l12 140h99l-46 -140h-65z" />
    <glyph glyph-name="ldot.alt" horiz-adv-x="280" 
d="M177 -6c-66 0 -111 31 -111 122v623h88v-613c0 -49 17 -61 47 -61c16 0 33 1 52 6v-61c-20 -9 -38 -16 -76 -16zM205 309v91h90v-91h-90z" />
    <glyph glyph-name="lslash.alt" horiz-adv-x="273" 
d="M8 291v80l67 36v332h88v-284l101 55v-80l-101 -55v-249c0 -49 17 -61 47 -61c16 0 33 1 52 6v-61c-20 -9 -38 -16 -76 -16c-66 0 -111 31 -111 122v211z" />
    <glyph glyph-name="f_f_l.alt" horiz-adv-x="850" 
d="M763 -6c-66 0 -111 31 -111 122v552c-21 4 -44 7 -76 7c-75 0 -116 -32 -116 -115v-47h117v-73h-117v-440h-88v440h-192v-440h-88v440h-75v73h75v67c0 109 70 160 155 160c42 0 64 -8 81 -16v-63c-14 3 -31 6 -65 6c-50 0 -83 -26 -83 -94v-60h192v54
c0 128 88 181 199 181c70 0 120 -7 169 -24v-598c0 -49 17 -61 47 -61c16 0 33 1 52 6v-61c-20 -9 -38 -16 -76 -16z" />
    <glyph glyph-name="f_l.alt" horiz-adv-x="570" 
d="M483 -6c-66 0 -111 31 -111 122v552c-21 4 -44 7 -76 7c-75 0 -116 -32 -116 -115v-47h117v-73h-117v-440h-88v440h-75v73h75v54c0 128 88 181 199 181c70 0 120 -7 169 -24v-598c0 -49 17 -61 47 -61c16 0 33 1 52 6v-61c-20 -9 -38 -16 -76 -16z" />
    <glyph glyph-name="registered.alt" horiz-adv-x="800" 
d="M399 -14c-203 0 -354 161 -354 358s151 356 354 356c202 0 356 -159 356 -356s-154 -358 -356 -358zM399 36c172 0 296 129 296 308s-124 306 -296 306c-173 0 -294 -127 -294 -306s121 -308 294 -308zM273 161v373h128c93 0 144 -35 144 -112c0 -55 -30 -86 -76 -98v-4
l95 -159h-81l-86 148h-49v-148h-75zM348 365h53c43 0 67 17 67 58c0 43 -28 53 -69 53h-51v-111z" />
    <glyph glyph-name="questiondown.uc" horiz-adv-x="414" 
d="M230 -12c-108 0 -198 48 -198 170c0 85 29 114 104 176c47 39 75 59 75 108v43h83v-49c0 -71 -37 -99 -104 -155c-44 -36 -62 -62 -62 -121c0 -72 46 -96 123 -96c61 0 92 10 137 25v-71c-47 -20 -94 -30 -158 -30zM201 592v101h100v-101h-100z" />
    <glyph glyph-name="exclamdown.uc" horiz-adv-x="279" 
d="M90 0l11 485h78l11 -485h-100zM89 592v101h100v-101h-100z" />
    <glyph glyph-name="hyphen.uc" horiz-adv-x="340" 
d="M63 298v76h214v-76h-214z" />
    <glyph glyph-name="endash.uc" horiz-adv-x="441" 
d="M43 302v70h355v-70h-355z" />
    <glyph glyph-name="emdash.uc" horiz-adv-x="716" 
d="M43 302v70h630v-70h-630z" />
    <glyph glyph-name="guilsinglleft.uc" horiz-adv-x="266" 
d="M142 86l-102 180v33l102 180h81l-100 -196l100 -197h-81z" />
    <glyph glyph-name="guilsinglright.uc" horiz-adv-x="266" 
d="M43 86l100 196l-100 197h81l102 -180v-33l-102 -180h-81z" />
    <glyph glyph-name="guillemotleft.uc" horiz-adv-x="446" 
d="M322 86l-102 180v33l102 180h81l-100 -196l100 -197h-81zM142 86l-102 180v33l102 180h81l-100 -196l100 -197h-81z" />
    <glyph glyph-name="guillemotright.uc" horiz-adv-x="446" 
d="M223 86l100 196l-100 197h81l102 -180v-33l-102 -180h-81zM43 86l100 196l-100 197h81l102 -180v-33l-102 -180h-81z" />
    <glyph glyph-name="parenleft.uc" horiz-adv-x="328" 
d="M238 -91c-98 96 -183 240 -183 421v17c0 182 85 325 183 421h78c-93 -102 -169 -251 -169 -412v-27c0 -156 76 -317 169 -420h-78z" />
    <glyph glyph-name="parenright.uc" horiz-adv-x="328" 
d="M12 -91c93 102 169 251 169 412v27c0 156 -76 317 -169 420h78c98 -96 183 -240 183 -421v-17c0 -182 -85 -325 -183 -421h-78z" />
    <glyph glyph-name="bracketleft.uc" horiz-adv-x="336" 
d="M78 -91v859h226v-70h-138v-719h138v-70h-226z" />
    <glyph glyph-name="bracketright.uc" horiz-adv-x="336" 
d="M32 -91v70h138v719h-138v70h226v-859h-226z" />
    <glyph glyph-name="braceleft.uc" horiz-adv-x="374" 
d="M342 -93c-179 4 -213 76 -213 163v141c0 64 -27 86 -113 91v72c86 5 113 28 113 92v141c0 87 34 159 213 163v-70c-88 -6 -125 -22 -125 -97v-141c0 -55 -17 -105 -106 -122v-3c89 -17 106 -67 106 -122v-141c0 -75 37 -91 125 -97v-70z" />
    <glyph glyph-name="braceright.uc" horiz-adv-x="374" 
d="M32 -93v70c88 6 125 22 125 97v141c0 55 17 105 106 122v3c-89 17 -106 67 -106 122v141c0 75 -37 91 -125 97v70c179 -4 213 -76 213 -163v-141c0 -64 27 -86 113 -91v-72c-86 -5 -113 -28 -113 -92v-141c0 -87 -34 -159 -213 -163z" />
    <glyph glyph-name="slash.uc" horiz-adv-x="346" 
d="M101 -60h-79l223 793h79z" />
    <glyph glyph-name="backslash.uc" horiz-adv-x="346" 
d="M324 -60h-79l-223 793h79z" />
    <glyph glyph-name="bar.uc" horiz-adv-x="290" 
d="M107 -60v793h76v-793h-76z" />
    <glyph glyph-name="at.uc" horiz-adv-x="788" 
d="M392 -12c-217 0 -345 116 -345 321c0 204 135 396 383 396c190 0 311 -126 311 -301c0 -161 -75 -254 -196 -254c-57 0 -88 19 -97 53h-4c-23 -28 -59 -53 -106 -53c-75 0 -120 52 -120 140c0 147 69 242 181 242c39 0 73 -14 91 -31h4l5 24h78l-52 -272
c-5 -27 3 -45 34 -45c71 0 113 69 113 191c0 146 -78 246 -245 246c-202 0 -311 -147 -311 -335c0 -167 92 -264 277 -264c83 0 155 20 196 34v-52c-51 -23 -117 -40 -197 -40zM362 212c36 0 61 19 81 37l35 194c-13 15 -40 28 -74 28c-76 0 -102 -76 -102 -179
c0 -53 21 -80 60 -80z" />
    <glyph glyph-name="uni2009" unicode="&#x2009;" horiz-adv-x="92" 
 />
    </font>
</defs>
</svg>
